<svg width="301" height="249" viewBox="0 0 301 249" fill="none" xmlns="http://www.w3.org/2000/svg">
<path d="M288.109 224.942C288.045 232.328 287.503 239.702 286.49 247.018C286.454 247.275 286.416 247.532 286.38 247.789L217.212 247.402C217.009 247.147 216.809 246.889 216.615 246.628C215.969 245.763 215.364 244.873 214.809 243.953C212.138 239.521 210.916 234.331 212.141 230.751L212.163 230.695C212.427 229.911 212.844 229.187 213.389 228.564C216.182 225.42 221.83 225.944 226.955 228.482C222.358 223.45 218.698 217.101 218.42 211.433C218.147 205.905 221.038 201.956 224.173 198.599C224.276 198.489 224.379 198.381 224.481 198.273C224.531 198.217 224.584 198.165 224.634 198.109C227.08 195.552 229.932 193.031 234.06 193.336C238.587 193.671 243.606 197.463 247.126 201.881C250.645 206.297 252.984 211.313 255.354 216.209C257.728 221.101 260.296 226.119 264.105 230.301C258.946 223.775 254.786 216.351 253.25 209.131C251.714 201.91 253.066 194.975 257.663 191.575C259.059 190.574 260.674 189.922 262.374 189.674C262.572 189.641 262.774 189.614 262.978 189.591C267.234 189.106 272.316 190.578 276.64 194.097C281.401 197.971 284.702 203.715 286.345 209.167C287.987 214.619 288.162 219.868 288.109 224.942Z" fill="#F2F2F2"/>
<path d="M242.856 247.545L241.533 247.538C241.113 247.275 240.691 247.016 240.267 246.759C240.005 246.594 239.739 246.434 239.474 246.272C235.087 243.592 230.672 241.022 226.23 238.561C221.792 236.098 217.332 233.749 212.849 231.513C212.73 231.461 212.633 231.37 212.575 231.254C212.517 231.138 212.501 231.006 212.53 230.879C212.535 230.863 212.543 230.847 212.552 230.833C212.615 230.716 212.755 230.667 212.959 230.767C213.508 231.043 214.061 231.318 214.611 231.6C219.106 233.875 223.582 236.262 228.038 238.763C232.491 241.264 236.919 243.874 241.321 246.595C241.414 246.651 241.507 246.71 241.599 246.767C242.019 247.026 242.436 247.286 242.856 247.545Z" fill="white"/>
<path d="M259.909 247.642L259.091 247.638C258.907 247.379 258.726 247.121 258.541 246.863C254.207 240.786 249.874 234.708 245.542 228.63C238.447 218.681 231.355 208.731 224.265 198.781C224.223 198.727 224.192 198.666 224.173 198.601C224.112 198.38 224.274 198.251 224.482 198.274C224.569 198.287 224.653 198.318 224.727 198.365C224.802 198.412 224.865 198.475 224.914 198.549C228.891 204.129 232.868 209.707 236.843 215.283C243.901 225.183 250.957 235.082 258.013 244.98C258.461 245.608 258.91 246.239 259.359 246.868C259.543 247.126 259.728 247.384 259.909 247.642Z" fill="white"/>
<path d="M278.13 242.89C278.088 244.269 277.997 245.625 277.878 246.969C277.854 247.226 277.831 247.483 277.808 247.74L276.95 247.735C276.976 247.478 277.003 247.221 277.026 246.964C277.207 245.023 277.336 243.059 277.353 241.043C277.376 235.452 276.831 229.873 275.727 224.392C274.553 218.49 272.868 212.702 270.69 207.093C268.404 201.177 265.649 195.453 262.449 189.977C262.389 189.888 262.362 189.78 262.374 189.673C262.409 189.428 262.735 189.356 262.978 189.59C263.026 189.635 263.068 189.688 263.101 189.745C263.497 190.426 263.886 191.109 264.267 191.793C267.348 197.3 269.986 203.043 272.154 208.969C274.22 214.596 275.791 220.393 276.85 226.294C277.842 231.768 278.271 237.329 278.13 242.89Z" fill="white"/>
<path d="M152.86 235.65C152.826 239.509 152.544 243.363 152.014 247.186C151.995 247.32 151.975 247.455 151.956 247.589L115.811 247.387C115.705 247.253 115.6 247.119 115.499 246.982C115.162 246.53 114.845 246.065 114.555 245.584C113.159 243.268 112.521 240.556 113.161 238.685L113.172 238.656C113.31 238.246 113.528 237.868 113.813 237.542C115.273 235.899 118.224 236.173 120.903 237.5C118.5 234.87 116.587 231.552 116.442 228.59C116.3 225.701 117.81 223.637 119.449 221.884C119.502 221.826 119.556 221.769 119.61 221.713C119.636 221.684 119.664 221.657 119.69 221.628C120.968 220.291 122.458 218.973 124.615 219.133C126.981 219.308 129.604 221.29 131.443 223.599C133.282 225.906 134.504 228.527 135.743 231.086C136.984 233.642 138.326 236.265 140.316 238.45C137.62 235.04 135.447 231.16 134.644 227.387C133.841 223.614 134.547 219.99 136.95 218.213C137.679 217.69 138.523 217.349 139.411 217.219C139.515 217.202 139.62 217.188 139.727 217.176C141.951 216.923 144.607 217.692 146.866 219.531C149.285 221.608 151.047 224.344 151.938 227.406C152.796 230.255 152.888 232.998 152.86 235.65Z" fill="#F2F2F2"/>
<path d="M129.212 247.462L128.521 247.458C128.301 247.321 128.081 247.185 127.859 247.051C127.722 246.965 127.583 246.882 127.444 246.797C125.152 245.396 122.845 244.053 120.524 242.767C118.204 241.48 115.874 240.253 113.531 239.084C113.469 239.057 113.418 239.009 113.388 238.949C113.357 238.888 113.349 238.819 113.364 238.753C113.367 238.744 113.371 238.736 113.376 238.729C113.409 238.667 113.482 238.642 113.588 238.694C113.876 238.838 114.165 238.982 114.452 239.13C116.801 240.318 119.14 241.566 121.468 242.873C123.795 244.18 126.109 245.544 128.41 246.966C128.458 246.995 128.507 247.026 128.555 247.055C128.775 247.191 128.992 247.327 129.212 247.462Z" fill="white"/>
<path d="M138.124 247.512L137.696 247.509C137.6 247.375 137.505 247.24 137.409 247.105C135.144 243.929 132.879 240.753 130.616 237.577C126.908 232.377 123.202 227.178 119.497 221.978C119.475 221.95 119.458 221.918 119.449 221.884C119.417 221.769 119.501 221.701 119.61 221.713C119.656 221.72 119.699 221.736 119.738 221.761C119.777 221.786 119.81 221.818 119.836 221.857C121.914 224.773 123.992 227.688 126.07 230.602C129.758 235.775 133.445 240.948 137.132 246.121C137.367 246.449 137.601 246.779 137.836 247.107C137.932 247.242 138.029 247.377 138.124 247.512Z" fill="white"/>
<path d="M147.645 245.031C147.623 245.751 147.576 246.46 147.513 247.162C147.501 247.296 147.489 247.431 147.477 247.565L147.029 247.562C147.042 247.428 147.056 247.294 147.068 247.159C147.163 246.145 147.23 245.119 147.239 244.065C147.251 241.143 146.966 238.228 146.389 235.364C145.776 232.28 144.895 229.255 143.757 226.324C142.563 223.232 141.123 220.241 139.451 217.379C139.419 217.333 139.405 217.276 139.411 217.22C139.43 217.093 139.6 217.055 139.727 217.177C139.752 217.201 139.774 217.228 139.791 217.258C139.998 217.614 140.201 217.971 140.401 218.328C142.011 221.206 143.389 224.207 144.522 227.304C145.602 230.245 146.423 233.274 146.976 236.358C147.495 239.218 147.719 242.124 147.645 245.031Z" fill="white"/>
<path d="M286.899 247.888H115.16C115.041 247.888 114.926 247.84 114.841 247.756C114.757 247.671 114.709 247.557 114.709 247.437C114.709 247.318 114.757 247.203 114.841 247.118C114.926 247.034 115.041 246.986 115.16 246.986H286.899C287.019 246.986 287.133 247.034 287.218 247.118C287.303 247.203 287.35 247.318 287.35 247.437C287.35 247.557 287.303 247.671 287.218 247.756C287.133 247.84 287.019 247.888 286.899 247.888Z" fill="#6C6666"/>
<path d="M89.8554 92.8117L21.0489 107.315C19.0605 107.732 16.9879 107.343 15.286 106.233C13.584 105.124 12.3915 103.385 11.9703 101.397L0.163199 45.3817C-0.253587 43.3933 0.135375 41.3208 1.24477 39.6188C2.35417 37.9168 4.09338 36.7244 6.08085 36.3031L74.8874 21.7999C76.8758 21.3831 78.9483 21.7721 80.6503 22.8815C82.3523 23.9909 83.5447 25.7301 83.966 27.7176L95.7731 83.7331C96.1899 85.7215 95.8009 87.7941 94.6915 89.4961C93.5821 91.1981 91.8429 92.3905 89.8554 92.8117ZM6.26681 37.1853C4.51316 37.557 2.97857 38.6091 1.99969 40.1109C1.02081 41.6126 0.677594 43.4413 1.04533 45.1958L12.8524 101.211C13.2241 102.965 14.2763 104.5 15.778 105.478C17.2798 106.457 19.1085 106.801 20.863 106.433L89.6695 91.9296C91.4231 91.5579 92.9577 90.5058 93.9366 89.004C94.9155 87.5023 95.2587 85.6735 94.8909 83.9191L83.0838 27.9035C82.7121 26.1499 81.66 24.6153 80.1582 23.6364C78.6565 22.6575 76.8278 22.3143 75.0733 22.6821L6.26681 37.1853Z" fill="#3F3D56"/>
<path d="M70.6124 40.2689L35.8867 47.5885C35.5828 47.659 35.2635 47.6116 34.9933 47.4557C34.7231 47.2998 34.5221 47.0471 34.4311 46.7487C34.3894 46.5931 34.3799 46.4307 34.4031 46.2713C34.4263 46.1119 34.4818 45.9589 34.5661 45.8216C34.6504 45.6844 34.7618 45.5657 34.8935 45.4729C35.0251 45.3801 35.1743 45.3151 35.3319 45.2819L70.6806 37.8311C72.0608 38.6089 71.6246 40.0556 70.612 40.2691L70.6124 40.2689Z" fill="#CCCCCC"/>
<path d="M71.8964 46.3617L37.1706 53.6813C36.8667 53.7518 36.5474 53.7044 36.2772 53.5485C36.007 53.3926 35.806 53.1399 35.715 52.8415C35.6733 52.6859 35.6639 52.5235 35.6871 52.3641C35.7103 52.2047 35.7657 52.0517 35.85 51.9144C35.9343 51.7772 36.0457 51.6585 36.1774 51.5657C36.3091 51.4729 36.4582 51.4079 36.6159 51.3747L71.9645 43.9238C73.3447 44.7016 72.9089 46.1483 71.8964 46.3617Z" fill="#CCCCCC"/>
<path d="M30.3948 58.73L19.7968 60.9639C19.4507 61.0365 19.0899 60.9688 18.7937 60.7757C18.4974 60.5826 18.2899 60.2798 18.2166 59.9339L15.5804 47.4274C15.5078 47.0813 15.5755 46.7205 15.7686 46.4243C15.9618 46.128 16.2645 45.9205 16.6105 45.8472L27.2084 43.6133C27.5545 43.5408 27.9152 43.6086 28.2115 43.8017C28.5077 43.9948 28.7152 44.2974 28.7886 44.6433L31.4248 57.1498C31.4974 57.4959 31.4297 57.8567 31.2366 58.1529C31.0435 58.4492 30.7407 58.6567 30.3948 58.73Z" fill="#CCCCCC"/>
<path d="M74.4241 58.8521L21.4262 70.0231C21.1224 70.0936 20.803 70.0461 20.5328 69.8902C20.2626 69.7343 20.0617 69.4817 19.9706 69.1833C19.929 69.0277 19.9195 68.8652 19.9427 68.7058C19.9659 68.5464 20.0213 68.3934 20.1056 68.2562C20.19 68.1189 20.3013 68.0003 20.433 67.9075C20.5647 67.8147 20.7139 67.7497 20.8715 67.7165L74.4927 56.4141C75.8729 57.1919 75.4366 58.6386 74.4241 58.8521Z" fill="#CCCCCC"/>
<path d="M75.7081 64.9449L22.7102 76.1159C22.4064 76.1864 22.087 76.1389 21.8168 75.983C21.5466 75.8271 21.3457 75.5744 21.2546 75.2761C21.213 75.1205 21.2035 74.958 21.2267 74.7986C21.2499 74.6392 21.3053 74.4862 21.3896 74.349C21.4739 74.2117 21.5853 74.0931 21.717 74.0003C21.8487 73.9075 21.9979 73.8425 22.1555 73.8092L75.7767 62.5068C77.1569 63.2847 76.7206 64.7314 75.7081 64.9449Z" fill="#CCCCCC"/>
<path d="M76.9917 71.0366L23.9938 82.2077C23.6899 82.2782 23.3706 82.2307 23.1004 82.0748C22.8302 81.9189 22.6292 81.6662 22.5382 81.3679C22.4965 81.2123 22.487 81.0498 22.5102 80.8904C22.5335 80.731 22.5889 80.578 22.6732 80.4408C22.7575 80.3035 22.8689 80.1848 23.0006 80.092C23.1323 79.9993 23.2814 79.9343 23.4391 79.901L77.0602 68.5986C78.4404 69.3765 78.0042 70.8232 76.9917 71.0366Z" fill="#CCCCCC"/>
<path d="M78.2761 77.1275L25.2783 88.2985C24.9744 88.369 24.6551 88.3215 24.3849 88.1656C24.1147 88.0097 23.9137 87.7571 23.8227 87.4587C23.781 87.3031 23.7715 87.1406 23.7947 86.9812C23.8179 86.8218 23.8734 86.6688 23.9577 86.5316C24.042 86.3943 24.1534 86.2757 24.2851 86.1829C24.4167 86.0901 24.5659 86.0251 24.7235 85.9919L78.3447 74.6895C79.7249 75.4673 79.2887 76.914 78.2761 77.1275Z" fill="#CCCCCC"/>
<path d="M79.5596 83.2163L26.5617 94.3874C26.2579 94.4579 25.9385 94.4104 25.6683 94.2545C25.3981 94.0986 25.1972 93.8459 25.1061 93.5475C25.0645 93.3919 25.055 93.2295 25.0782 93.0701C25.1014 92.9107 25.1568 92.7577 25.2411 92.6204C25.3254 92.4832 25.4368 92.3645 25.5685 92.2717C25.7002 92.1789 25.8494 92.114 26.007 92.0807L79.6282 80.7783C81.0084 81.5561 80.5722 83.0029 79.5596 83.2163Z" fill="#CCCCCC"/>
<path d="M198.059 78.4335H127.74C125.709 78.4312 123.761 77.6231 122.324 76.1866C120.888 74.75 120.08 72.8022 120.078 70.7706V13.5242C120.08 11.4926 120.888 9.54484 122.324 8.10827C123.761 6.67169 125.709 5.86362 127.74 5.86133H198.059C200.09 5.86362 202.038 6.67169 203.475 8.10827C204.911 9.54484 205.719 11.4926 205.722 13.5242V70.7706C205.719 72.8022 204.911 74.75 203.475 76.1866C202.038 77.6231 200.09 78.4312 198.059 78.4335ZM127.74 6.76285C125.948 6.76487 124.229 7.47788 122.962 8.74545C121.694 10.013 120.981 11.7316 120.979 13.5242V70.7706C120.981 72.5632 121.694 74.2818 122.962 75.5494C124.229 76.817 125.948 77.53 127.74 77.532H198.059C199.851 77.53 201.57 76.817 202.838 75.5494C204.105 74.2818 204.818 72.5632 204.82 70.7706V13.5242C204.818 11.7316 204.105 10.013 202.838 8.74545C201.57 7.47788 199.851 6.76487 198.059 6.76285H127.74Z" fill="#3F3D56"/>
<path d="M190.066 23.0492H154.577C154.265 23.0555 153.963 22.9432 153.73 22.7349C153.498 22.5266 153.354 22.2379 153.326 21.9272C153.317 21.7664 153.342 21.6054 153.397 21.4543C153.453 21.3031 153.539 21.1648 153.649 21.0479C153.76 20.931 153.894 20.8378 154.042 20.7742C154.19 20.7106 154.349 20.6777 154.51 20.6777H190.636C191.826 21.7235 191.101 23.0492 190.066 23.0492Z" fill="#CCCCCC"/>
<path d="M190.066 29.2767H154.577C154.265 29.283 153.963 29.1707 153.73 28.9624C153.498 28.7542 153.354 28.4655 153.326 28.1547C153.317 27.9939 153.342 27.833 153.397 27.6818C153.453 27.5306 153.539 27.3923 153.649 27.2754C153.76 27.1585 153.894 27.0654 154.042 27.0017C154.19 26.9381 154.349 26.9053 154.51 26.9053H190.636C191.826 27.951 191.101 29.2767 190.066 29.2767Z" fill="#CCCCCC"/>
<path d="M146.906 32.8209H136.075C135.721 32.8206 135.382 32.6799 135.132 32.4299C134.882 32.1798 134.741 31.8408 134.741 31.4871V18.7059C134.741 18.3522 134.882 18.0132 135.132 17.7631C135.382 17.5131 135.721 17.3724 136.075 17.3721H146.906C147.259 17.3725 147.598 17.5132 147.848 17.7633C148.098 18.0133 148.239 18.3523 148.24 18.7059V31.4871C148.239 31.8408 148.099 32.1798 147.848 32.4299C147.598 32.6799 147.259 32.8206 146.906 32.8209Z" fill="#3F3D56"/>
<path d="M189.963 42.0208H135.801C135.489 42.0272 135.186 41.9148 134.954 41.7066C134.722 41.4983 134.577 41.2096 134.55 40.8989C134.541 40.738 134.565 40.5771 134.621 40.4259C134.676 40.2747 134.762 40.1365 134.873 40.0195C134.984 39.9026 135.117 39.8095 135.265 39.7459C135.413 39.6822 135.573 39.6494 135.734 39.6494H190.533C191.723 40.6952 190.998 42.0208 189.963 42.0208Z" fill="#CCCCCC"/>
<path d="M189.963 48.2474H135.801C135.489 48.2537 135.186 48.1414 134.954 47.9331C134.722 47.7249 134.577 47.4362 134.55 47.1255C134.541 46.9646 134.565 46.8037 134.621 46.6525C134.676 46.5013 134.762 46.363 134.873 46.2461C134.984 46.1292 135.117 46.0361 135.265 45.9724C135.413 45.9088 135.573 45.876 135.734 45.876H190.533C191.723 46.9217 190.998 48.2474 189.963 48.2474Z" fill="#CCCCCC"/>
<path d="M189.963 54.471H135.801C135.489 54.4774 135.186 54.3651 134.954 54.1568C134.722 53.9485 134.577 53.6598 134.55 53.3491C134.541 53.1882 134.565 53.0273 134.621 52.8761C134.676 52.725 134.762 52.5867 134.873 52.4698C134.984 52.3528 135.117 52.2597 135.265 52.1961C135.413 52.1324 135.573 52.0996 135.734 52.0996H190.533C191.723 53.1454 190.998 54.471 189.963 54.471Z" fill="#CCCCCC"/>
<path d="M189.963 60.6976H135.801C135.489 60.7039 135.186 60.5916 134.954 60.3833C134.722 60.1751 134.577 59.8864 134.55 59.5756C134.541 59.4148 134.565 59.2539 134.621 59.1027C134.676 58.9515 134.762 58.8132 134.873 58.6963C134.984 58.5794 135.117 58.4863 135.265 58.4226C135.413 58.359 135.573 58.3262 135.734 58.3262H190.533C191.723 59.3719 190.998 60.6976 189.963 60.6976Z" fill="#CCCCCC"/>
<path d="M189.963 66.9222H135.801C135.489 66.9286 135.186 66.8162 134.954 66.608C134.722 66.3997 134.577 66.111 134.55 65.8003C134.541 65.6394 134.565 65.4785 134.621 65.3273C134.676 65.1761 134.762 65.0379 134.873 64.9209C134.984 64.804 135.117 64.7109 135.265 64.6473C135.413 64.5836 135.573 64.5508 135.734 64.5508H190.533C191.723 65.5965 190.998 66.9222 189.963 66.9222Z" fill="#CCCCCC"/>
<path d="M182.733 0C183.33 0.000683599 183.903 0.238356 184.326 0.660876C184.748 1.0834 184.986 1.65626 184.987 2.25379V9.46594C184.986 10.0635 184.748 10.6363 184.326 11.0589C183.903 11.4814 183.33 11.719 182.733 11.7197H143.066C142.469 11.719 141.896 11.4814 141.473 11.0589C141.051 10.6363 140.813 10.0635 140.812 9.46594V2.25379C140.813 1.65626 141.051 1.0834 141.473 0.660876C141.896 0.238356 142.469 0.000683599 143.066 0" fill="#6C63FF"/>
<path d="M260.96 171.446L198.109 139.911C196.294 138.998 194.916 137.402 194.276 135.474C193.636 133.546 193.787 131.443 194.696 129.626L220.368 78.4585C221.282 76.6437 222.877 75.2651 224.806 74.6254C226.734 73.9856 228.837 74.1368 230.654 75.0458L293.505 106.58C295.32 107.493 296.699 109.089 297.338 111.017C297.978 112.946 297.827 115.049 296.918 116.866L271.246 168.033C270.333 169.848 268.737 171.226 266.809 171.866C264.88 172.506 262.777 172.355 260.96 171.446ZM230.25 75.8516C228.647 75.0495 226.791 74.9161 225.089 75.4806C223.388 76.0451 221.98 77.2615 221.174 78.8628L195.502 130.03C194.7 131.633 194.567 133.489 195.131 135.19C195.696 136.892 196.912 138.3 198.513 139.106L261.364 170.64C262.967 171.442 264.823 171.575 266.525 171.011C268.226 170.446 269.634 169.23 270.44 167.629L296.112 116.461C296.914 114.858 297.048 113.002 296.483 111.301C295.919 109.6 294.702 108.192 293.101 107.386L230.25 75.8516Z" fill="#3F3D56"/>
<path d="M278.652 118.361L246.932 102.446C246.65 102.312 246.43 102.076 246.316 101.785C246.202 101.495 246.202 101.172 246.317 100.882C246.381 100.735 246.475 100.602 246.593 100.491C246.71 100.381 246.849 100.296 247 100.241C247.152 100.186 247.313 100.163 247.474 100.173C247.634 100.182 247.792 100.224 247.936 100.296L280.225 116.497C280.819 117.965 279.577 118.825 278.652 118.361Z" fill="#3F3D56"/>
<path d="M275.86 123.926L244.14 108.011C243.858 107.876 243.638 107.64 243.524 107.35C243.41 107.06 243.41 106.737 243.525 106.447C243.589 106.299 243.683 106.166 243.801 106.056C243.918 105.946 244.057 105.861 244.208 105.806C244.36 105.751 244.521 105.728 244.682 105.737C244.842 105.746 245 105.789 245.144 105.861L277.433 122.061C278.027 123.53 276.785 124.39 275.86 123.926Z" fill="#3F3D56"/>
<path d="M235.694 107.737L226.013 102.88C225.697 102.721 225.457 102.443 225.346 102.108C225.235 101.772 225.261 101.406 225.419 101.09L231.151 89.6658C231.31 89.3499 231.588 89.1099 231.923 88.9985C232.259 88.8872 232.625 88.9135 232.941 89.0718L242.622 93.9289C242.938 94.0879 243.178 94.3656 243.289 94.7012C243.4 95.0369 243.374 95.4029 243.216 95.7192L237.484 107.143C237.325 107.459 237.048 107.699 236.712 107.81C236.376 107.922 236.01 107.895 235.694 107.737Z" fill="#CCCCCC"/>
<path d="M258.403 157.965L248.722 153.108C248.406 152.949 248.166 152.671 248.055 152.336C247.943 152 247.97 151.634 248.128 151.318L251.434 144.728C251.593 144.412 251.871 144.172 252.206 144.061C252.542 143.95 252.908 143.976 253.224 144.134L262.905 148.991C263.221 149.15 263.461 149.428 263.572 149.764C263.684 150.099 263.657 150.465 263.499 150.782L260.193 157.371C260.034 157.687 259.756 157.927 259.421 158.038C259.085 158.15 258.719 158.123 258.403 157.965Z" fill="#3F3D56"/>
<path d="M270.053 135.27L221.642 110.981C221.36 110.847 221.14 110.611 221.026 110.321C220.912 110.03 220.912 109.707 221.027 109.417C221.091 109.27 221.185 109.137 221.303 109.027C221.42 108.916 221.559 108.831 221.71 108.776C221.862 108.722 222.023 108.698 222.184 108.708C222.344 108.717 222.502 108.759 222.646 108.832L271.626 133.406C272.22 134.875 270.978 135.734 270.053 135.27Z" fill="#CCCCCC"/>
<path d="M267.26 140.837L218.849 116.548C218.567 116.413 218.347 116.177 218.233 115.887C218.119 115.597 218.119 115.274 218.234 114.984C218.298 114.836 218.392 114.703 218.51 114.593C218.627 114.483 218.766 114.398 218.917 114.343C219.069 114.288 219.23 114.265 219.391 114.274C219.551 114.284 219.709 114.326 219.853 114.398L268.833 138.973C269.427 140.441 268.185 141.301 267.26 140.837Z" fill="#CCCCCC"/>
<path d="M264.47 146.397L216.059 122.108C215.778 121.974 215.557 121.738 215.443 121.448C215.329 121.157 215.329 120.834 215.444 120.544C215.508 120.397 215.602 120.264 215.72 120.153C215.837 120.043 215.976 119.958 216.127 119.903C216.279 119.849 216.44 119.825 216.601 119.835C216.761 119.844 216.919 119.886 217.063 119.959L266.043 144.533C266.638 146.002 265.395 146.861 264.47 146.397Z" fill="#CCCCCC"/>
<path d="M236.295 139.229L213.266 127.675C212.985 127.54 212.765 127.304 212.65 127.014C212.536 126.724 212.537 126.401 212.651 126.111C212.716 125.963 212.81 125.83 212.927 125.72C213.044 125.61 213.183 125.525 213.335 125.47C213.486 125.415 213.647 125.392 213.808 125.401C213.969 125.411 214.126 125.453 214.27 125.525L237.868 137.365C238.463 138.833 237.22 139.693 236.295 139.229Z" fill="#CCCCCC"/>
<path d="M233.505 144.79L210.476 133.236C210.195 133.102 209.974 132.866 209.86 132.575C209.746 132.285 209.746 131.962 209.861 131.672C209.925 131.525 210.019 131.392 210.137 131.281C210.254 131.171 210.393 131.086 210.544 131.031C210.696 130.976 210.857 130.953 211.018 130.963C211.179 130.972 211.336 131.014 211.48 131.086L235.078 142.926C235.672 144.395 234.43 145.254 233.505 144.79Z" fill="#CCCCCC"/>
<path d="M277.179 104.944L241.725 87.1558C241.191 86.8872 240.785 86.4179 240.597 85.8508C240.409 85.2836 240.454 84.665 240.721 84.1306L243.955 77.6844C244.224 77.1506 244.693 76.7452 245.26 76.557C245.827 76.3688 246.446 76.4133 246.98 76.6806L282.435 94.4693C282.969 94.7378 283.374 95.2072 283.562 95.7743C283.75 96.3414 283.706 96.9601 283.439 97.4944L280.204 103.941C279.936 104.474 279.466 104.88 278.899 105.068C278.332 105.256 277.713 105.212 277.179 104.944Z" fill="#6C63FF"/>
<path d="M212.98 248.048H41.2408C41.1212 248.048 41.0066 248.001 40.9221 247.916C40.8375 247.831 40.79 247.717 40.79 247.597C40.79 247.478 40.8375 247.363 40.9221 247.279C41.0066 247.194 41.1212 247.146 41.2408 247.146H212.98C213.099 247.146 213.214 247.194 213.299 247.279C213.383 247.363 213.431 247.478 213.431 247.597C213.431 247.717 213.383 247.831 213.299 247.916C213.214 248.001 213.099 248.048 212.98 248.048Z" fill="#6C6666"/>
<path d="M156.124 125.234H49.3965C49.0211 125.234 48.6494 125.308 48.3026 125.452C47.9557 125.596 47.6406 125.806 47.3752 126.072C47.1097 126.337 46.8992 126.652 46.7555 126.999C46.6118 127.346 46.5379 127.717 46.5379 128.093V204.812C46.5379 205.188 46.6118 205.559 46.7555 205.906C46.8992 206.253 47.1097 206.568 47.3752 206.833C47.6406 207.099 47.9557 207.309 48.3026 207.453C48.6494 207.597 49.0211 207.671 49.3965 207.671H156.124C156.499 207.671 156.871 207.597 157.218 207.453C157.565 207.309 157.88 207.099 158.145 206.833C158.411 206.568 158.621 206.253 158.765 205.906C158.908 205.559 158.982 205.188 158.982 204.812V128.093C158.982 127.717 158.908 127.346 158.765 126.999C158.621 126.652 158.411 126.337 158.145 126.072C157.88 125.806 157.565 125.596 157.218 125.452C156.871 125.308 156.499 125.234 156.124 125.234ZM52.4016 129.718C52.1287 129.718 51.8619 129.637 51.6351 129.486C51.4082 129.334 51.2313 129.119 51.1269 128.867C51.0225 128.615 50.9952 128.337 51.0484 128.07C51.1016 127.802 51.233 127.556 51.426 127.363C51.6189 127.17 51.8648 127.039 52.1324 126.985C52.4 126.932 52.6774 126.96 52.9295 127.064C53.1816 127.168 53.3971 127.345 53.5487 127.572C53.7003 127.799 53.7812 128.066 53.7812 128.339C53.7812 128.705 53.6359 129.056 53.3771 129.314C53.1184 129.573 52.7675 129.718 52.4016 129.718ZM60.6797 129.718C60.4068 129.718 60.1401 129.637 59.9132 129.486C59.6863 129.334 59.5094 129.119 59.405 128.867C59.3006 128.615 59.2733 128.337 59.3265 128.07C59.3797 127.802 59.5111 127.556 59.7041 127.363C59.897 127.17 60.1429 127.039 60.4105 126.985C60.6782 126.932 60.9556 126.96 61.2077 127.064C61.4598 127.168 61.6752 127.345 61.8268 127.572C61.9784 127.799 62.0594 128.066 62.0594 128.339C62.0594 128.705 61.914 129.056 61.6553 129.314C61.3965 129.573 61.0456 129.718 60.6797 129.718ZM68.9578 129.718C68.6849 129.718 68.4182 129.637 68.1913 129.486C67.9644 129.334 67.7876 129.119 67.6831 128.867C67.5787 128.615 67.5514 128.337 67.6046 128.07C67.6579 127.802 67.7893 127.556 67.9822 127.363C68.1752 127.17 68.421 127.039 68.6886 126.985C68.9563 126.932 69.2337 126.96 69.4858 127.064C69.7379 127.168 69.9534 127.345 70.105 127.572C70.2566 127.799 70.3375 128.066 70.3375 128.339C70.3375 128.705 70.1921 129.056 69.9334 129.314C69.6746 129.573 69.3237 129.718 68.9578 129.718ZM77.2359 129.718C76.963 129.718 76.6963 129.637 76.4694 129.486C76.2425 129.334 76.0657 129.119 75.9613 128.867C75.8568 128.615 75.8295 128.337 75.8827 128.07C75.936 127.802 76.0674 127.556 76.2603 127.363C76.4533 127.17 76.6991 127.039 76.9667 126.985C77.2344 126.932 77.5118 126.96 77.7639 127.064C78.016 127.168 78.2315 127.345 78.3831 127.572C78.5347 127.799 78.6156 128.066 78.6156 128.339C78.6156 128.705 78.4702 129.056 78.2115 129.314C77.9528 129.573 77.6018 129.718 77.2359 129.718ZM85.514 129.718C85.2412 129.718 84.9744 129.637 84.7475 129.486C84.5206 129.334 84.3438 129.119 84.2394 128.867C84.1349 128.615 84.1076 128.337 84.1609 128.07C84.2141 127.802 84.3455 127.556 84.5384 127.363C84.7314 127.17 84.9772 127.039 85.2449 126.985C85.5125 126.932 85.7899 126.96 86.042 127.064C86.2941 127.168 86.5096 127.345 86.6612 127.572C86.8128 127.799 86.8937 128.066 86.8937 128.339C86.8937 128.705 86.7483 129.056 86.4896 129.314C86.2309 129.573 85.8799 129.718 85.514 129.718ZM93.7921 129.718C93.5193 129.718 93.2525 129.637 93.0256 129.486C92.7987 129.334 92.6219 129.119 92.5175 128.867C92.4131 128.615 92.3857 128.337 92.439 128.07C92.4922 127.802 92.6236 127.556 92.8166 127.363C93.0095 127.17 93.2554 127.039 93.523 126.985C93.7906 126.932 94.068 126.96 94.3201 127.064C94.5722 127.168 94.7877 127.345 94.9393 127.572C95.0909 127.799 95.1718 128.066 95.1718 128.339C95.1718 128.705 95.0265 129.056 94.7677 129.314C94.509 129.573 94.1581 129.718 93.7921 129.718ZM102.07 129.718C101.797 129.718 101.531 129.637 101.304 129.486C101.077 129.334 100.9 129.119 100.796 128.867C100.691 128.615 100.664 128.337 100.717 128.07C100.77 127.802 100.902 127.556 101.095 127.363C101.288 127.17 101.533 127.039 101.801 126.985C102.069 126.932 102.346 126.96 102.598 127.064C102.85 127.168 103.066 127.345 103.217 127.572C103.369 127.799 103.45 128.066 103.45 128.339C103.45 128.705 103.305 129.056 103.046 129.314C102.787 129.573 102.436 129.718 102.07 129.718ZM110.348 129.718C110.076 129.718 109.809 129.637 109.582 129.486C109.355 129.334 109.178 129.119 109.074 128.867C108.969 128.615 108.942 128.337 108.995 128.07C109.048 127.802 109.18 127.556 109.373 127.363C109.566 127.17 109.812 127.039 110.079 126.985C110.347 126.932 110.624 126.96 110.876 127.064C111.128 127.168 111.344 127.345 111.496 127.572C111.647 127.799 111.728 128.066 111.728 128.339C111.728 128.705 111.583 129.055 111.324 129.314C111.065 129.573 110.714 129.718 110.348 129.718ZM118.627 129.718C118.354 129.718 118.087 129.637 117.86 129.486C117.633 129.334 117.456 129.119 117.352 128.867C117.247 128.615 117.22 128.337 117.273 128.07C117.327 127.802 117.458 127.556 117.651 127.363C117.844 127.17 118.09 127.039 118.357 126.985C118.625 126.932 118.902 126.96 119.154 127.064C119.407 127.168 119.622 127.345 119.774 127.572C119.925 127.799 120.006 128.066 120.006 128.339C120.006 128.705 119.861 129.055 119.602 129.314C119.343 129.573 118.992 129.718 118.627 129.718ZM126.905 129.718C126.632 129.718 126.365 129.637 126.138 129.486C125.911 129.334 125.734 129.119 125.63 128.867C125.526 128.615 125.498 128.337 125.551 128.07C125.605 127.802 125.736 127.556 125.929 127.363C126.122 127.17 126.368 127.039 126.635 126.985C126.903 126.932 127.181 126.96 127.433 127.064C127.685 127.168 127.9 127.345 128.052 127.572C128.203 127.799 128.284 128.066 128.284 128.339C128.284 128.705 128.139 129.055 127.88 129.314C127.621 129.573 127.271 129.718 126.905 129.718ZM135.183 129.718C134.91 129.718 134.643 129.637 134.416 129.486C134.189 129.334 134.012 129.119 133.908 128.867C133.804 128.615 133.776 128.337 133.83 128.07C133.883 127.802 134.014 127.556 134.207 127.363C134.4 127.17 134.646 127.039 134.914 126.985C135.181 126.932 135.459 126.96 135.711 127.064C135.963 127.168 136.178 127.345 136.33 127.572C136.481 127.799 136.562 128.066 136.562 128.339C136.562 128.705 136.417 129.055 136.158 129.314C135.9 129.573 135.549 129.718 135.183 129.718ZM143.461 129.718C143.188 129.718 142.921 129.637 142.694 129.486C142.467 129.334 142.291 129.119 142.186 128.867C142.082 128.615 142.054 128.337 142.108 128.07C142.161 127.802 142.292 127.556 142.485 127.363C142.678 127.17 142.924 127.039 143.192 126.985C143.459 126.932 143.737 126.96 143.989 127.064C144.241 127.168 144.456 127.345 144.608 127.572C144.76 127.799 144.841 128.066 144.841 128.339C144.841 128.705 144.695 129.055 144.436 129.314C144.178 129.573 143.827 129.718 143.461 129.718ZM151.739 129.718C151.466 129.718 151.199 129.637 150.972 129.486C150.746 129.334 150.569 129.119 150.464 128.867C150.36 128.615 150.333 128.337 150.386 128.07C150.439 127.802 150.57 127.556 150.763 127.363C150.956 127.17 151.202 127.039 151.47 126.985C151.737 126.932 152.015 126.96 152.267 127.064C152.519 127.168 152.735 127.345 152.886 127.572C153.038 127.799 153.119 128.066 153.119 128.339C153.119 128.705 152.973 129.055 152.715 129.314C152.456 129.573 152.105 129.718 151.739 129.718Z" fill="#CACACA"/>
<path d="M150.605 117.646H43.8778C43.5024 117.646 43.1307 117.72 42.7839 117.864C42.4371 118.008 42.1219 118.218 41.8565 118.484C41.591 118.749 41.3805 119.064 41.2368 119.411C41.0932 119.758 41.0192 120.13 41.0192 120.505V197.224C41.0192 197.6 41.0932 197.971 41.2368 198.318C41.3805 198.665 41.591 198.98 41.8565 199.246C42.1219 199.511 42.4371 199.722 42.7839 199.865C43.1307 200.009 43.5024 200.083 43.8778 200.083H150.605C150.981 200.083 151.352 200.009 151.699 199.865C152.046 199.722 152.361 199.511 152.626 199.246C152.892 198.98 153.102 198.665 153.246 198.318C153.39 197.971 153.464 197.6 153.464 197.224V120.505C153.464 120.13 153.39 119.758 153.246 119.411C153.102 119.064 152.892 118.749 152.626 118.484C152.361 118.218 152.046 118.008 151.699 117.864C151.352 117.72 150.981 117.646 150.605 117.646ZM46.8829 122.13C46.61 122.13 46.3433 122.05 46.1164 121.898C45.8895 121.746 45.7126 121.531 45.6082 121.279C45.5038 121.027 45.4765 120.749 45.5297 120.482C45.5829 120.214 45.7143 119.968 45.9073 119.775C46.1003 119.582 46.3461 119.451 46.6137 119.398C46.8814 119.344 47.1588 119.372 47.4109 119.476C47.663 119.581 47.8785 119.757 48.0301 119.984C48.1817 120.211 48.2626 120.478 48.2626 120.751C48.2626 121.117 48.1172 121.468 47.8585 121.726C47.5997 121.985 47.2488 122.13 46.8829 122.13ZM55.161 122.13C54.8881 122.13 54.6214 122.05 54.3945 121.898C54.1676 121.746 53.9908 121.531 53.8863 121.279C53.7819 121.027 53.7546 120.749 53.8078 120.482C53.8611 120.214 53.9925 119.968 54.1854 119.775C54.3784 119.582 54.6242 119.451 54.8918 119.398C55.1595 119.344 55.4369 119.372 55.689 119.476C55.9411 119.581 56.1566 119.757 56.3082 119.984C56.4598 120.211 56.5407 120.478 56.5407 120.751C56.5407 121.117 56.3953 121.468 56.1366 121.726C55.8778 121.985 55.5269 122.13 55.161 122.13ZM63.4391 122.13C63.1663 122.13 62.8995 122.05 62.6726 121.898C62.4457 121.746 62.2689 121.531 62.1645 121.279C62.06 121.027 62.0327 120.749 62.0859 120.482C62.1392 120.214 62.2706 119.968 62.4635 119.775C62.6565 119.582 62.9023 119.451 63.17 119.398C63.4376 119.344 63.715 119.372 63.9671 119.476C64.2192 119.581 64.4347 119.757 64.5863 119.984C64.7379 120.211 64.8188 120.478 64.8188 120.751C64.8188 121.117 64.6734 121.468 64.4147 121.726C64.156 121.985 63.805 122.13 63.4391 122.13ZM71.7172 122.13C71.4444 122.13 71.1776 122.05 70.9507 121.898C70.7238 121.746 70.547 121.531 70.4426 121.279C70.3382 121.027 70.3108 120.749 70.3641 120.482C70.4173 120.214 70.5487 119.968 70.7417 119.775C70.9346 119.582 71.1804 119.451 71.4481 119.398C71.7157 119.344 71.9931 119.372 72.2452 119.476C72.4973 119.581 72.7128 119.757 72.8644 119.984C73.016 120.211 73.0969 120.478 73.0969 120.751C73.0969 121.117 72.9516 121.468 72.6928 121.726C72.4341 121.985 72.0832 122.13 71.7172 122.13ZM79.9954 122.13C79.7225 122.13 79.4557 122.05 79.2288 121.898C79.002 121.746 78.8251 121.531 78.7207 121.279C78.6163 121.027 78.589 120.749 78.6422 120.482C78.6954 120.214 78.8268 119.968 79.0198 119.775C79.2127 119.582 79.4586 119.451 79.7262 119.398C79.9938 119.344 80.2712 119.372 80.5233 119.476C80.7754 119.581 80.9909 119.757 81.1425 119.984C81.2941 120.211 81.375 120.478 81.375 120.751C81.375 121.117 81.2297 121.468 80.9709 121.726C80.7122 121.985 80.3613 122.13 79.9954 122.13ZM88.2735 122.13C88.0006 122.13 87.7339 122.05 87.507 121.898C87.2801 121.746 87.1032 121.531 86.9988 121.279C86.8944 121.027 86.8671 120.749 86.9203 120.482C86.9735 120.214 87.1049 119.968 87.2979 119.775C87.4908 119.582 87.7367 119.451 88.0043 119.398C88.2719 119.344 88.5494 119.372 88.8015 119.476C89.0536 119.581 89.269 119.757 89.4206 119.984C89.5723 120.211 89.6532 120.478 89.6532 120.751C89.6532 121.117 89.5078 121.468 89.2491 121.726C88.9903 121.985 88.6394 122.13 88.2735 122.13ZM96.5516 122.13C96.2787 122.13 96.012 122.05 95.7851 121.898C95.5582 121.746 95.3814 121.531 95.2769 121.279C95.1725 121.027 95.1452 120.749 95.1984 120.482C95.2517 120.214 95.3831 119.968 95.576 119.775C95.769 119.582 96.0148 119.451 96.2824 119.398C96.5501 119.344 96.8275 119.372 97.0796 119.476C97.3317 119.581 97.5472 119.757 97.6988 119.984C97.8504 120.211 97.9313 120.478 97.9313 120.751C97.9313 121.117 97.7859 121.468 97.5272 121.726C97.2684 121.985 96.9175 122.13 96.5516 122.13ZM104.83 122.13C104.557 122.13 104.29 122.05 104.063 121.898C103.836 121.746 103.659 121.531 103.555 121.279C103.451 121.027 103.423 120.749 103.477 120.482C103.53 120.214 103.661 119.968 103.854 119.775C104.047 119.582 104.293 119.451 104.561 119.398C104.828 119.344 105.106 119.372 105.358 119.476C105.61 119.581 105.825 119.757 105.977 119.984C106.128 120.211 106.209 120.478 106.209 120.751C106.209 121.117 106.064 121.468 105.805 121.726C105.547 121.985 105.196 122.13 104.83 122.13ZM113.108 122.13C112.835 122.13 112.568 122.05 112.341 121.898C112.114 121.746 111.938 121.531 111.833 121.279C111.729 121.027 111.701 120.749 111.755 120.482C111.808 120.214 111.939 119.968 112.132 119.775C112.325 119.582 112.571 119.451 112.839 119.398C113.106 119.344 113.384 119.372 113.636 119.476C113.888 119.581 114.103 119.757 114.255 119.984C114.407 120.211 114.488 120.478 114.488 120.751C114.488 121.117 114.342 121.468 114.083 121.726C113.825 121.985 113.474 122.13 113.108 122.13ZM121.386 122.13C121.113 122.13 120.846 122.05 120.619 121.898C120.393 121.746 120.216 121.531 120.111 121.279C120.007 121.027 119.98 120.749 120.033 120.482C120.086 120.214 120.217 119.968 120.41 119.775C120.603 119.582 120.849 119.451 121.117 119.398C121.384 119.344 121.662 119.372 121.914 119.476C122.166 119.581 122.382 119.757 122.533 119.984C122.685 120.211 122.766 120.478 122.766 120.751C122.766 121.117 122.62 121.468 122.362 121.726C122.103 121.985 121.752 122.13 121.386 122.13ZM129.664 122.13C129.391 122.13 129.124 122.05 128.898 121.898C128.671 121.746 128.494 121.531 128.389 121.279C128.285 121.027 128.258 120.749 128.311 120.482C128.364 120.214 128.496 119.968 128.688 119.775C128.881 119.582 129.127 119.451 129.395 119.398C129.663 119.344 129.94 119.372 130.192 119.476C130.444 119.581 130.66 119.757 130.811 119.984C130.963 120.211 131.044 120.478 131.044 120.751C131.044 121.117 130.898 121.468 130.64 121.726C130.381 121.985 130.03 122.13 129.664 122.13ZM137.942 122.13C137.669 122.13 137.403 122.05 137.176 121.898C136.949 121.746 136.772 121.531 136.668 121.279C136.563 121.027 136.536 120.749 136.589 120.482C136.642 120.214 136.774 119.968 136.967 119.775C137.16 119.582 137.405 119.451 137.673 119.398C137.941 119.344 138.218 119.372 138.47 119.476C138.722 119.581 138.938 119.757 139.089 119.984C139.241 120.211 139.322 120.478 139.322 120.751C139.322 121.117 139.177 121.468 138.918 121.726C138.659 121.985 138.308 122.13 137.942 122.13ZM146.22 122.13C145.947 122.13 145.681 122.05 145.454 121.898C145.227 121.746 145.05 121.531 144.946 121.279C144.841 121.027 144.814 120.749 144.867 120.482C144.92 120.214 145.052 119.968 145.245 119.775C145.438 119.582 145.684 119.451 145.951 119.398C146.219 119.344 146.496 119.372 146.748 119.476C147 119.581 147.216 119.757 147.367 119.984C147.519 120.211 147.6 120.478 147.6 120.751C147.6 121.117 147.455 121.468 147.196 121.726C146.937 121.985 146.586 122.13 146.22 122.13Z" fill="#F0F0F0"/>
<path d="M70.2008 159.868C70.195 156.824 70.9503 153.736 72.659 151.19C73.4692 149.965 74.5164 148.915 75.7389 148.101C76.9614 147.287 78.3345 146.727 79.7771 146.452C81.2014 146.186 82.6692 146.271 84.0532 146.7C85.3066 147.111 86.4339 147.836 87.328 148.806C89.0402 150.636 90.0962 153.557 89.1031 155.994C88.871 156.563 88.5246 157.077 88.0853 157.507C87.6461 157.936 87.1233 158.271 86.5495 158.49C85.5276 158.843 84.2683 158.57 83.829 157.477C83.4523 156.54 83.8455 155.414 84.4744 154.683C84.8393 154.247 85.3257 153.931 85.8714 153.773C86.4171 153.615 86.9974 153.624 87.5382 153.798C88.8833 154.178 89.944 155.274 90.5791 156.485C91.3173 157.892 91.4714 159.555 91.3162 161.116C90.9742 164.556 89.1954 167.618 87.8859 170.75C86.6687 173.661 85.6565 177.028 86.5933 180.166C86.9793 181.414 87.6797 182.543 88.6271 183.443C89.5745 184.343 90.7373 184.984 92.004 185.306C94.4203 185.954 97.2472 185.493 98.9633 183.56C99.7725 182.648 100.363 181.462 100.371 180.224C100.382 179.645 100.239 179.073 99.9557 178.568C99.6725 178.062 99.2598 177.641 98.76 177.349C96.6689 176.179 93.8453 177.381 92.9693 179.521C92.4332 180.831 92.5347 182.336 93.0405 183.638C93.5817 184.981 94.4946 186.141 95.6721 186.983C96.8951 187.891 98.3237 188.495 99.7671 188.957C101.269 189.447 102.816 189.783 104.386 189.96C107.379 190.279 110.503 189.78 112.85 187.774C114.914 186.009 116.05 183.397 116.628 180.796C117.298 177.778 117.197 174.695 117.204 171.624C117.21 168.351 117.293 164.779 118.87 161.821C120.109 159.494 122.301 157.458 124.916 156.849C126.124 156.563 127.391 156.667 128.535 157.147C128.914 157.306 129.079 156.688 128.705 156.531C126.192 155.477 123.426 156.304 121.35 157.909C120.256 158.758 119.327 159.801 118.61 160.986C117.838 162.32 117.306 163.78 117.039 165.299C115.829 171.47 117.7 178.133 114.881 183.999C114.327 185.191 113.546 186.265 112.583 187.16C111.474 188.145 110.13 188.828 108.68 189.143C105.621 189.837 102.302 189.179 99.3905 188.158C96.5996 187.181 93.8101 185.346 93.3104 182.206C93.1045 180.912 93.3964 179.465 94.384 178.547C94.8008 178.166 95.2968 177.882 95.8365 177.715C96.3761 177.549 96.946 177.504 97.5051 177.584C98.052 177.663 98.5595 177.914 98.9539 178.301C99.3483 178.688 99.6092 179.191 99.6986 179.736C99.8975 180.952 99.3034 182.218 98.5116 183.108C96.773 185.064 93.867 185.339 91.5085 184.48C90.3437 184.061 89.3063 183.348 88.4958 182.412C87.5574 181.264 87.0009 179.852 86.9039 178.372C86.6279 175.023 88.0761 171.802 89.4366 168.832C90.8226 165.807 92.3118 162.485 91.9602 159.073C91.8382 157.563 91.2634 156.124 90.311 154.946C89.4375 153.902 88.1968 153.117 86.8148 153.031C86.2543 152.999 85.6945 153.106 85.1853 153.343C84.6761 153.579 84.2332 153.938 83.896 154.387C83.2422 155.222 82.8606 156.362 83.1384 157.416C83.2934 157.952 83.6174 158.425 84.0623 158.763C84.5072 159.101 85.0493 159.286 85.6079 159.291C86.8299 159.313 87.9931 158.58 88.7758 157.689C90.5449 155.675 90.3734 152.695 89.2261 150.416C88.6183 149.202 87.7313 148.148 86.6377 147.343C85.5441 146.537 84.2751 146.003 82.9349 145.782C80.0866 145.34 77.1208 146.219 74.8391 147.948C72.4086 149.789 70.8309 152.55 70.0906 155.478C69.7326 156.914 69.555 158.389 69.562 159.868C69.5649 159.951 69.5998 160.03 69.6594 160.087C69.719 160.145 69.7986 160.177 69.8814 160.177C69.9642 160.177 70.0438 160.145 70.1034 160.087C70.163 160.03 70.1979 159.951 70.2008 159.868Z" fill="#6C63FF"/>
<path d="M131.008 158.84L129.345 158.186C129.236 158.144 129.136 158.08 129.051 157.998C128.966 157.917 128.899 157.82 128.852 157.712C128.805 157.605 128.779 157.489 128.777 157.371C128.775 157.254 128.796 157.137 128.839 157.028C128.882 156.918 128.946 156.819 129.027 156.734C129.109 156.65 129.206 156.582 129.314 156.535C129.422 156.488 129.537 156.463 129.655 156.461C129.772 156.459 129.889 156.48 129.998 156.523L131.661 157.177C131.882 157.264 132.058 157.434 132.153 157.651C132.247 157.868 132.251 158.114 132.165 158.334C132.078 158.554 131.908 158.731 131.691 158.826C131.474 158.921 131.229 158.926 131.008 158.84Z" fill="#6C63FF"/>
<path d="M168.041 169.868L135.176 156.959C134.967 156.877 134.741 156.847 134.518 156.87C134.294 156.894 134.08 156.971 133.893 157.095L132.577 156.578C132.427 156.519 132.267 156.49 132.105 156.493C131.944 156.496 131.785 156.531 131.637 156.596C131.489 156.66 131.355 156.753 131.243 156.869C131.131 156.985 131.043 157.122 130.984 157.273L130.576 158.312C130.517 158.462 130.489 158.622 130.491 158.783C130.494 158.945 130.529 159.104 130.594 159.252C130.658 159.4 130.751 159.534 130.867 159.646C130.983 159.757 131.121 159.845 131.271 159.904L132.365 160.334C132.29 160.661 132.335 161.003 132.492 161.299C132.648 161.595 132.905 161.826 133.217 161.949L166.082 174.857C166.428 174.993 166.815 174.986 167.157 174.837C167.498 174.688 167.766 174.41 167.903 174.063L168.835 171.688C168.971 171.342 168.964 170.955 168.815 170.614C168.667 170.272 168.388 170.004 168.041 169.868Z" fill="#3F3D56"/>
</svg>
