<svg width="117" height="71" viewBox="0 0 117 71" fill="none" xmlns="http://www.w3.org/2000/svg">
<path d="M1.46338 42.9998C1.46338 42.9998 16.6989 24.7085 30.375 21.9998C40.7741 19.9402 46.8122 27.0923 57.2926 25.4998C73.5208 23.034 76.6293 5.4208 92.6844 1.99988C101.634 0.0929484 115.614 1.99983 115.614 1.99983" stroke="#FF8D63" stroke-width="2" stroke-linecap="round"/>
<path d="M30.375 22.8475C16.6989 25.5562 1.46338 43.8475 1.46338 43.8475V71H115.614V2.84749C115.614 2.84749 101.634 0.940605 92.6844 2.84754C76.6293 6.26846 73.5208 23.8817 57.2926 26.3475C46.8122 27.9399 40.7741 20.7878 30.375 22.8475Z" fill="url(#paint0_linear_151_3258)"/>
<path d="M30.375 22.8475C16.6989 25.5562 1.46338 43.8475 1.46338 43.8475V71H115.614V2.84749C115.614 2.84749 101.634 0.940605 92.6844 2.84754C76.6293 6.26846 73.5208 23.8817 57.2926 26.3475C46.8122 27.9399 40.7741 20.7878 30.375 22.8475Z" fill="url(#paint1_linear_151_3258)"/>
<defs>
<linearGradient id="paint0_linear_151_3258" x1="46.8247" y1="-0.499999" x2="60.8632" y2="60.9814" gradientUnits="userSpaceOnUse">
<stop stop-color="#FF895D"/>
<stop offset="1" stop-color="white" stop-opacity="0"/>
</linearGradient>
<linearGradient id="paint1_linear_151_3258" x1="36.8551" y1="-18" x2="61.41" y2="44.449" gradientUnits="userSpaceOnUse">
<stop stop-color="#FF7947"/>
<stop offset="1" stop-color="white" stop-opacity="0"/>
</linearGradient>
</defs>
</svg>
