<svg width="116" height="71" viewBox="0 0 116 71" fill="none" xmlns="http://www.w3.org/2000/svg">
<path d="M1.06152 42.8475C1.06152 42.8475 16.1706 24.5562 29.7332 21.8475C40.0461 19.7878 46.0341 26.9399 56.4275 25.3475C72.521 22.8817 75.6037 5.26846 91.5255 1.84754C100.401 -0.0593953 114.265 1.84749 114.265 1.84749" stroke="#B8B225" stroke-width="2" stroke-linecap="round"/>
<path d="M29.7332 22.6951C16.1706 25.4038 1.06152 43.6951 1.06152 43.6951V70.8477H114.265V2.69514C114.265 2.69514 100.401 0.788261 91.5255 2.6952C75.6037 6.11611 72.521 23.7293 56.4275 26.1951C46.0341 27.7876 40.0461 20.6355 29.7332 22.6951Z" fill="url(#paint0_linear_151_4630)"/>
<path d="M29.7332 22.6951C16.1706 25.4038 1.06152 43.6951 1.06152 43.6951V70.8477H114.265V2.69514C114.265 2.69514 100.401 0.788261 91.5255 2.6952C75.6037 6.11611 72.521 23.7293 56.4275 26.1951C46.0341 27.7876 40.0461 20.6355 29.7332 22.6951Z" fill="url(#paint1_linear_151_4630)"/>
<defs>
<linearGradient id="paint0_linear_151_4630" x1="46.0464" y1="-0.652343" x2="60.1906" y2="60.7779" gradientUnits="userSpaceOnUse">
<stop stop-color="#E8E011"/>
<stop offset="1" stop-color="white" stop-opacity="0"/>
</linearGradient>
<linearGradient id="paint1_linear_151_4630" x1="36.1596" y1="-18.1523" x2="60.8644" y2="44.1565" gradientUnits="userSpaceOnUse">
<stop stop-color="#D2C231"/>
<stop offset="1" stop-color="white" stop-opacity="0"/>
</linearGradient>
</defs>
</svg>
