<svg width="125" height="34" viewBox="0 0 125 34" fill="none" xmlns="http://www.w3.org/2000/svg">
<rect width="125" height="34" fill="#82AA86"/>
<g id="Group 1000003398">
<g id="EOD mOdals">
<rect width="909" height="1169" transform="translate(-288 -64)" fill="white"/>
<g id="Rectangle 3740" filter="url(#filter0_d_0_1)">
<rect x="-24" y="-16" width="351" height="242" rx="8" fill="white"/>
<rect x="-23.5" y="-15.5" width="350" height="241" rx="7.5" stroke="#8791E9" stroke-opacity="0.3"/>
</g>
<g id="Group 1000003370">
<g id="Vector 36" filter="url(#filter1_d_0_1)">
<path d="M120 13L99.5381 1H6L17.1224 13L6 25H99.5381L120 13Z" fill="#D92D20"/>
<path d="M120 13L99.5381 1H6L17.1224 13L6 25H99.5381L120 13Z" stroke="#D92D20"/>
</g>
<path id="Declined" d="M31.832 7.88C33.016 7.88 34.0507 8.10933 34.936 8.568C35.832 9.016 36.52 9.66667 37 10.52C37.4907 11.3627 37.736 12.3493 37.736 13.48C37.736 14.6107 37.4907 15.592 37 16.424C36.52 17.256 35.832 17.896 34.936 18.344C34.0507 18.7813 33.016 19 31.832 19H28.2V7.88H31.832ZM31.832 17.512C33.1333 17.512 34.1307 17.16 34.824 16.456C35.5173 15.752 35.864 14.76 35.864 13.48C35.864 12.1893 35.5173 11.1813 34.824 10.456C34.1307 9.73067 33.1333 9.368 31.832 9.368H30.024V17.512H31.832ZM47.7838 14.376C47.7838 14.7067 47.7624 15.0053 47.7198 15.272H40.9837C41.0371 15.976 41.2984 16.5413 41.7678 16.968C42.2371 17.3947 42.8131 17.608 43.4957 17.608C44.4771 17.608 45.1704 17.1973 45.5758 16.376H47.5437C47.2771 17.1867 46.7918 17.8533 46.0878 18.376C45.3944 18.888 44.5304 19.144 43.4957 19.144C42.6531 19.144 41.8957 18.9573 41.2237 18.584C40.5624 18.2 40.0397 17.6667 39.6557 16.984C39.2824 16.2907 39.0957 15.4907 39.0957 14.584C39.0957 13.6773 39.2771 12.8827 39.6397 12.2C40.0131 11.5067 40.5304 10.9733 41.1918 10.6C41.8637 10.2267 42.6317 10.04 43.4957 10.04C44.3278 10.04 45.0691 10.2213 45.7198 10.584C46.3704 10.9467 46.8771 11.4587 47.2397 12.12C47.6024 12.7707 47.7838 13.5227 47.7838 14.376ZM45.8798 13.8C45.8691 13.128 45.6291 12.5893 45.1597 12.184C44.6904 11.7787 44.1091 11.576 43.4158 11.576C42.7864 11.576 42.2478 11.7787 41.7998 12.184C41.3517 12.5787 41.0851 13.1173 40.9997 13.8H45.8798ZM49.1307 14.584C49.1307 13.6773 49.3121 12.8827 49.6747 12.2C50.0481 11.5067 50.5601 10.9733 51.2107 10.6C51.8614 10.2267 52.6081 10.04 53.4507 10.04C54.5174 10.04 55.3974 10.296 56.0908 10.808C56.7948 11.3093 57.2694 12.0293 57.5148 12.968H55.5468C55.3867 12.5307 55.1307 12.1893 54.7787 11.944C54.4268 11.6987 53.9841 11.576 53.4507 11.576C52.7041 11.576 52.1067 11.8427 51.6587 12.376C51.2214 12.8987 51.0027 13.6347 51.0027 14.584C51.0027 15.5333 51.2214 16.2747 51.6587 16.808C52.1067 17.3413 52.7041 17.608 53.4507 17.608C54.5067 17.608 55.2054 17.144 55.5468 16.216H57.5148C57.2587 17.112 56.7787 17.8267 56.0747 18.36C55.3708 18.8827 54.4961 19.144 53.4507 19.144C52.6081 19.144 51.8614 18.9573 51.2107 18.584C50.5601 18.2 50.0481 17.6667 49.6747 16.984C49.3121 16.2907 49.1307 15.4907 49.1307 14.584ZM61.3165 7.16V19H59.4925V7.16H61.3165ZM64.7992 9.016C64.4686 9.016 64.1912 8.904 63.9672 8.68C63.7432 8.456 63.6312 8.17867 63.6312 7.848C63.6312 7.51733 63.7432 7.24 63.9672 7.016C64.1912 6.792 64.4686 6.68 64.7992 6.68C65.1192 6.68 65.3912 6.792 65.6152 7.016C65.8392 7.24 65.9512 7.51733 65.9512 7.848C65.9512 8.17867 65.8392 8.456 65.6152 8.68C65.3912 8.904 65.1192 9.016 64.7992 9.016ZM65.6952 10.184V19H63.8712V10.184H65.6952ZM72.698 10.04C73.3913 10.04 74.01 10.184 74.554 10.472C75.1087 10.76 75.5407 11.1867 75.85 11.752C76.1593 12.3173 76.314 13 76.314 13.8V19H74.506V14.072C74.506 13.2827 74.3087 12.68 73.914 12.264C73.5193 11.8373 72.9807 11.624 72.298 11.624C71.6153 11.624 71.0713 11.8373 70.666 12.264C70.2713 12.68 70.074 13.2827 70.074 14.072V19H68.25V10.184H70.074V11.192C70.3727 10.8293 70.7513 10.5467 71.21 10.344C71.6793 10.1413 72.1753 10.04 72.698 10.04ZM86.8806 14.376C86.8806 14.7067 86.8593 15.0053 86.8166 15.272H80.0806C80.134 15.976 80.3953 16.5413 80.8646 16.968C81.334 17.3947 81.91 17.608 82.5926 17.608C83.574 17.608 84.2673 17.1973 84.6726 16.376H86.6406C86.374 17.1867 85.8886 17.8533 85.1846 18.376C84.4913 18.888 83.6273 19.144 82.5926 19.144C81.75 19.144 80.9926 18.9573 80.3206 18.584C79.6593 18.2 79.1366 17.6667 78.7526 16.984C78.3793 16.2907 78.1926 15.4907 78.1926 14.584C78.1926 13.6773 78.374 12.8827 78.7366 12.2C79.11 11.5067 79.6273 10.9733 80.2886 10.6C80.9606 10.2267 81.7286 10.04 82.5926 10.04C83.4246 10.04 84.166 10.2213 84.8166 10.584C85.4673 10.9467 85.974 11.4587 86.3366 12.12C86.6993 12.7707 86.8806 13.5227 86.8806 14.376ZM84.9766 13.8C84.966 13.128 84.726 12.5893 84.2566 12.184C83.7873 11.7787 83.206 11.576 82.5126 11.576C81.8833 11.576 81.3446 11.7787 80.8966 12.184C80.4486 12.5787 80.182 13.1173 80.0966 13.8H84.9766ZM88.2276 14.552C88.2276 13.6667 88.409 12.8827 88.7716 12.2C89.145 11.5173 89.6463 10.9893 90.2756 10.616C90.9156 10.232 91.625 10.04 92.4036 10.04C92.9796 10.04 93.545 10.168 94.0996 10.424C94.665 10.6693 95.113 11 95.4436 11.416V7.16H97.2836V19H95.4436V17.672C95.145 18.0987 94.729 18.4507 94.1956 18.728C93.673 19.0053 93.0703 19.144 92.3876 19.144C91.6196 19.144 90.9156 18.952 90.2756 18.568C89.6463 18.1733 89.145 17.6293 88.7716 16.936C88.409 16.232 88.2276 15.4373 88.2276 14.552ZM95.4436 14.584C95.4436 13.976 95.3156 13.448 95.0596 13C94.8143 12.552 94.489 12.2107 94.0836 11.976C93.6783 11.7413 93.241 11.624 92.7716 11.624C92.3023 11.624 91.865 11.7413 91.4596 11.976C91.0543 12.2 90.7236 12.536 90.4676 12.984C90.2223 13.4213 90.0996 13.944 90.0996 14.552C90.0996 15.16 90.2223 15.6933 90.4676 16.152C90.7236 16.6107 91.0543 16.9627 91.4596 17.208C91.8756 17.4427 92.313 17.56 92.7716 17.56C93.241 17.56 93.6783 17.4427 94.0836 17.208C94.489 16.9733 94.8143 16.632 95.0596 16.184C95.3156 15.7253 95.4436 15.192 95.4436 14.584Z" fill="white"/>
</g>
</g>
</g>
<defs>
<filter id="filter0_d_0_1" x="-28" y="-16" width="359" height="250" filterUnits="userSpaceOnUse" color-interpolation-filters="sRGB">
<feFlood flood-opacity="0" result="BackgroundImageFix"/>
<feColorMatrix in="SourceAlpha" type="matrix" values="0 0 0 0 0 0 0 0 0 0 0 0 0 0 0 0 0 0 127 0" result="hardAlpha"/>
<feOffset dy="4"/>
<feGaussianBlur stdDeviation="2"/>
<feComposite in2="hardAlpha" operator="out"/>
<feColorMatrix type="matrix" values="0 0 0 0 0 0 0 0 0 0 0 0 0 0 0 0 0 0 0.1 0"/>
<feBlend mode="normal" in2="BackgroundImageFix" result="effect1_dropShadow_0_1"/>
<feBlend mode="normal" in="SourceGraphic" in2="effect1_dropShadow_0_1" result="shape"/>
</filter>
<filter id="filter1_d_0_1" x="0.854736" y="0.5" width="124.134" height="33" filterUnits="userSpaceOnUse" color-interpolation-filters="sRGB">
<feFlood flood-opacity="0" result="BackgroundImageFix"/>
<feColorMatrix in="SourceAlpha" type="matrix" values="0 0 0 0 0 0 0 0 0 0 0 0 0 0 0 0 0 0 127 0" result="hardAlpha"/>
<feOffset dy="4"/>
<feGaussianBlur stdDeviation="2"/>
<feComposite in2="hardAlpha" operator="out"/>
<feColorMatrix type="matrix" values="0 0 0 0 0 0 0 0 0 0 0 0 0 0 0 0 0 0 0.1 0"/>
<feBlend mode="normal" in2="BackgroundImageFix" result="effect1_dropShadow_0_1"/>
<feBlend mode="normal" in="SourceGraphic" in2="effect1_dropShadow_0_1" result="shape"/>
</filter>
</defs>
</svg>
