<svg width="119" height="118" viewBox="0 0 119 118" fill="none" xmlns="http://www.w3.org/2000/svg">
<path d="M79.2357 113.654H48.3654C48.0786 113.654 47.8448 113.888 47.8448 114.174C47.8448 114.462 48.0786 114.695 48.3654 114.695H79.2357C79.5224 114.695 79.7557 114.462 79.7557 114.174C79.7557 113.888 79.5224 113.654 79.2357 113.654Z" fill="#E6E6E6"/>
<path d="M72.385 116.344H55.2156C54.9288 116.344 54.6956 116.577 54.6956 116.864C54.6956 117.151 54.9288 117.384 55.2156 117.384H72.385C72.6718 117.384 72.9056 117.151 72.9056 116.864C72.9056 116.577 72.6718 116.344 72.385 116.344Z" fill="#E6E6E6"/>
<path d="M45.9318 110.312H44.7343V108.539L45.9318 110.312Z" fill="#2F2E41"/>
<path d="M82.2704 110.314H78.2424C78.3037 110.242 78.3383 110.2 78.3383 110.2L79.5458 110L82.0338 109.59C82.0338 109.59 82.1473 109.883 82.2704 110.314Z" fill="#2F2E41"/>
<path d="M86.9629 108.365H39.4824C38.8104 108.365 38.2639 108.912 38.2639 109.584C38.2639 110.256 38.8104 110.803 39.4824 110.803H86.9629C87.6349 110.803 88.182 110.256 88.182 109.584C88.182 108.912 87.6349 108.365 86.9629 108.365Z" fill="#E6E6E6"/>
<path d="M68.1243 104.65L68.032 108.958C68.023 109.375 67.6824 109.709 67.2653 109.709H59.341C58.9338 109.709 58.5976 109.39 58.5753 108.984L58.3399 104.676C58.3158 104.237 58.6656 103.867 59.1055 103.867H67.3576C67.7876 103.867 68.1335 104.221 68.1243 104.65Z" fill="#3F3D56"/>
<path d="M51.5974 104.65L51.5051 108.958C51.4962 109.375 51.1556 109.709 50.7385 109.709H42.8142C42.4069 109.709 42.0707 109.39 42.0485 108.984L41.813 104.676C41.789 104.237 42.1387 103.867 42.5787 103.867H50.8308C51.2607 103.867 51.6066 104.221 51.5974 104.65Z" fill="#3F3D56"/>
<path d="M85.3442 104.65L85.2519 108.958C85.243 109.375 84.9024 109.709 84.4853 109.709H76.561C76.1537 109.709 75.8175 109.39 75.7953 108.984L75.5598 104.676C75.5358 104.237 75.8855 103.867 76.3255 103.867H84.5776C85.0075 103.867 85.3534 104.221 85.3442 104.65Z" fill="#3F3D56"/>
<path d="M16.6389 38.9467L57.4272 4.05859L57.6163 4.57071L16.9718 39.3359L16.6389 38.9467Z" fill="#2F2E41"/>
<path d="M60.8961 11.9554C64.1975 11.9554 66.8738 9.27909 66.8738 5.9777C66.8738 2.67631 64.1975 0 60.8961 0C57.5947 0 54.9184 2.67631 54.9184 5.9777C54.9184 9.27909 57.5947 11.9554 60.8961 11.9554Z" fill="#6C63FF"/>
<path d="M111.279 19.2144H56.6985C56.4645 19.2146 56.2328 19.1688 56.0166 19.0795C55.8004 18.9901 55.604 18.8591 55.4384 18.6937C55.2729 18.5284 55.1416 18.3321 55.052 18.116C54.9624 17.8999 54.9163 17.6683 54.9163 17.4343C54.9163 17.2004 54.9624 16.9688 55.052 16.7527C55.1416 16.5366 55.2729 16.3402 55.4384 16.1749C55.604 16.0096 55.8004 15.8785 56.0166 15.7892C56.2328 15.6999 56.4645 15.654 56.6985 15.6543H111.279C111.513 15.654 111.744 15.6999 111.96 15.7892C112.177 15.8785 112.373 16.0096 112.539 16.1749C112.704 16.3402 112.835 16.5366 112.925 16.7527C113.015 16.9688 113.061 17.2004 113.061 17.4343C113.061 17.6683 113.015 17.8999 112.925 18.116C112.835 18.3321 112.704 18.5284 112.539 18.6937C112.373 18.8591 112.177 18.9901 111.96 19.0795C111.744 19.1688 111.513 19.2146 111.279 19.2144Z" fill="#6C63FF"/>
<path d="M111.279 26.2497H56.6985C56.2264 26.2497 55.7736 26.0622 55.4398 25.7283C55.1059 25.3945 54.9184 24.9417 54.9184 24.4696C54.9184 23.9975 55.1059 23.5447 55.4398 23.2108C55.7736 22.877 56.2264 22.6895 56.6985 22.6895H111.279C111.751 22.6895 112.204 22.877 112.537 23.2108C112.871 23.5447 113.059 23.9975 113.059 24.4696C113.059 24.9417 112.871 25.3945 112.537 25.7283C112.204 26.0622 111.751 26.2497 111.279 26.2497Z" fill="#6C63FF"/>
<path d="M80.3577 33.281H56.6985C56.2264 33.281 55.7736 33.0934 55.4398 32.7596C55.1059 32.4257 54.9184 31.9729 54.9184 31.5008C54.9184 31.0287 55.1059 30.5759 55.4398 30.2421C55.7736 29.9082 56.2264 29.7207 56.6985 29.7207H80.3577C80.8298 29.7207 81.2826 29.9082 81.6164 30.2421C81.9503 30.5759 82.1378 31.0287 82.1378 31.5008C82.1378 31.9729 81.9503 32.4257 81.6164 32.7596C81.2826 33.0934 80.8298 33.281 80.3577 33.281Z" fill="#6C63FF"/>
<path d="M70.9718 55.4113C73.2347 55.4113 75.0691 53.5769 75.0691 51.3141C75.0691 49.0512 73.2347 47.2168 70.9718 47.2168C68.709 47.2168 66.8746 49.0512 66.8746 51.3141C66.8746 53.5769 68.709 55.4113 70.9718 55.4113Z" fill="#E6E7E8"/>
<path d="M105.505 60.3874H68.0943C67.9339 60.3877 67.7751 60.3563 67.6268 60.2951C67.4786 60.2338 67.3439 60.144 67.2304 60.0307C67.1169 59.9174 67.0269 59.7828 66.9655 59.6347C66.9041 59.4865 66.8724 59.3277 66.8724 59.1673C66.8724 59.007 66.9041 58.8482 66.9655 58.7C67.0269 58.5519 67.1169 58.4173 67.2304 58.304C67.3439 58.1907 67.4786 58.1009 67.6268 58.0396C67.7751 57.9784 67.9339 57.947 68.0943 57.9473H105.505C105.665 57.947 105.824 57.9784 105.972 58.0396C106.121 58.1009 106.255 58.1907 106.369 58.304C106.482 58.4173 106.572 58.5519 106.634 58.7C106.695 58.8482 106.727 59.007 106.727 59.1673C106.727 59.3277 106.695 59.4865 106.634 59.6347C106.572 59.7828 106.482 59.9174 106.369 60.0307C106.255 60.144 106.121 60.2338 105.972 60.2951C105.824 60.3563 105.665 60.3877 105.505 60.3874Z" fill="#E6E7E8"/>
<path d="M77.3868 65.2079H68.0951C67.7718 65.2074 67.4619 65.0787 67.2335 64.8499C67.005 64.6211 66.8767 64.311 66.8767 63.9877C66.8767 63.6644 67.005 63.3543 67.2335 63.1256C67.4619 62.8968 67.7718 62.768 68.0951 62.7676H77.3868C77.7101 62.768 78.02 62.8968 78.2484 63.1256C78.4768 63.3543 78.6052 63.6644 78.6052 63.9877C78.6052 64.311 78.4768 64.6211 78.2484 64.8499C78.02 65.0787 77.7101 65.2074 77.3868 65.2079Z" fill="#E6E7E8"/>
<path d="M57.8936 96.384C60.1564 96.384 61.9909 94.5496 61.9909 92.2867C61.9909 90.0239 60.1564 88.1895 57.8936 88.1895C55.6307 88.1895 53.7963 90.0239 53.7963 92.2867C53.7963 94.5496 55.6307 96.384 57.8936 96.384Z" fill="#E6E7E8"/>
<path d="M92.4266 101.36H55.0161C54.8557 101.36 54.6969 101.329 54.5486 101.268C54.4004 101.207 54.2657 101.117 54.1522 101.003C54.0387 100.89 53.9487 100.755 53.8873 100.607C53.8259 100.459 53.7943 100.3 53.7943 100.14C53.7943 99.9796 53.8259 99.8208 53.8873 99.6727C53.9487 99.5245 54.0387 99.39 54.1522 99.2767C54.2657 99.1633 54.4004 99.0735 54.5486 99.0123C54.6969 98.9511 54.8557 98.9197 55.0161 98.9199H92.4266C92.587 98.9197 92.7458 98.9511 92.8941 99.0123C93.0423 99.0735 93.177 99.1633 93.2905 99.2767C93.404 99.39 93.494 99.5245 93.5554 99.6727C93.6168 99.8208 93.6485 99.9796 93.6485 100.14C93.6485 100.3 93.6168 100.459 93.5554 100.607C93.494 100.755 93.404 100.89 93.2905 101.003C93.177 101.117 93.0423 101.207 92.8941 101.268C92.7458 101.329 92.587 101.36 92.4266 101.36Z" fill="#E6E7E8"/>
<path d="M77.4966 106.181H55.0165C54.6929 106.181 54.3825 106.052 54.1537 105.823C53.9249 105.594 53.7963 105.284 53.7963 104.96C53.7963 104.637 53.9249 104.326 54.1537 104.098C54.3825 103.869 54.6929 103.74 55.0165 103.74H77.4966C77.8202 103.74 78.1306 103.869 78.3594 104.098C78.5882 104.326 78.7168 104.637 78.7168 104.96C78.7168 105.284 78.5882 105.594 78.3594 105.823C78.1306 106.052 77.8202 106.181 77.4966 106.181Z" fill="#E6E7E8"/>
<path d="M71.233 111.003H55.0165C54.6929 111.003 54.3825 110.874 54.1537 110.645C53.9249 110.417 53.7963 110.106 53.7963 109.783C53.7963 109.459 53.9249 109.149 54.1537 108.92C54.3825 108.691 54.6929 108.562 55.0165 108.562H71.233C71.5566 108.562 71.867 108.691 72.0958 108.92C72.3246 109.149 72.4532 109.459 72.4532 109.783C72.4532 110.106 72.3246 110.417 72.0958 110.645C71.867 110.874 71.5566 111.003 71.233 111.003Z" fill="#E6E7E8"/>
<path d="M15.3756 67.011C23.8673 67.011 30.7512 60.1271 30.7512 51.6354C30.7512 43.1437 23.8673 36.2598 15.3756 36.2598C6.8839 36.2598 0 43.1437 0 51.6354C0 60.1271 6.8839 67.011 15.3756 67.011Z" fill="#6C63FF"/>
<path d="M14.0323 57.6609C13.9991 57.6609 13.9655 57.6602 13.9319 57.6585C13.637 57.6442 13.3487 57.5663 13.0868 57.4302C12.8248 57.294 12.5954 57.1028 12.4142 56.8697L9.99089 53.7543C9.65768 53.3251 9.50835 52.7812 9.5757 52.2419C9.64305 51.7027 9.92155 51.2123 10.3501 50.8781L10.4369 50.8105C10.8663 50.4773 11.4103 50.328 11.9496 50.3953C12.4889 50.4625 12.9795 50.7409 13.3139 51.1694C13.4227 51.3094 13.5604 51.4242 13.7177 51.5059C13.875 51.5877 14.0481 51.6344 14.2251 51.643C14.4024 51.6534 14.5797 51.6245 14.7445 51.5584C14.9093 51.4923 15.0575 51.3906 15.1784 51.2606L20.0987 46.0667C20.4729 45.6727 20.988 45.4432 21.5312 45.4285C22.0743 45.4138 22.6011 45.6151 22.9961 45.9883L23.076 46.0639C23.4703 46.438 23.6999 46.9532 23.7147 47.4965C23.7295 48.0397 23.5282 48.5667 23.1549 48.9617L15.5196 57.0209C15.3283 57.2232 15.0977 57.3843 14.842 57.4943C14.5862 57.6044 14.3107 57.6611 14.0323 57.6609Z" fill="white"/>
<path d="M59.9196 9.35886C59.9059 9.35886 59.8921 9.35853 59.8783 9.35786C59.757 9.35197 59.6384 9.31992 59.5306 9.2639C59.4228 9.20789 59.3284 9.12923 59.2539 9.03333L58.257 7.7517C58.1199 7.5751 58.0585 7.35134 58.0862 7.12952C58.1139 6.90769 58.2284 6.70591 58.4047 6.56846L58.4405 6.54065C58.6171 6.40357 58.8409 6.34213 59.0628 6.3698C59.2846 6.39747 59.4865 6.512 59.624 6.68827C59.6688 6.74585 59.7254 6.79308 59.7901 6.82671C59.8549 6.86034 59.9261 6.87958 59.9989 6.88311C60.0718 6.88738 60.1448 6.87548 60.2126 6.84829C60.2804 6.82109 60.3413 6.77926 60.3911 6.72578L62.4153 4.58903C62.5692 4.42695 62.7811 4.33253 63.0046 4.32648C63.228 4.32043 63.4448 4.40325 63.6072 4.55678L63.6402 4.58788C63.8023 4.74179 63.8968 4.95375 63.9029 5.17724C63.909 5.40074 63.8261 5.61752 63.6726 5.78001L60.5315 9.09556C60.4527 9.17876 60.3579 9.24503 60.2527 9.2903C60.1475 9.33558 60.0341 9.35891 59.9196 9.35886Z" fill="white"/>
<path d="M107.434 103.026C109.213 104.233 111.19 105.592 111.763 107.796C111.895 108.267 111.93 108.76 111.867 109.244C111.803 109.729 111.643 110.196 111.394 110.617C110.938 111.378 110.257 111.976 109.594 112.552C108.806 113.236 108.011 113.909 107.4 114.764C107.12 115.155 107.767 115.528 108.044 115.141C109.178 113.556 111.062 112.659 112.06 110.958C113.24 108.948 112.452 106.563 110.99 104.935C110.077 103.919 108.933 103.143 107.81 102.381C107.412 102.111 107.038 102.757 107.434 103.026Z" fill="#E6E7E8"/>
<path d="M113.655 103.026C115.434 104.233 117.411 105.592 117.984 107.796C118.116 108.267 118.151 108.76 118.088 109.244C118.025 109.729 117.864 110.196 117.615 110.617C117.159 111.378 116.478 111.976 115.815 112.552C115.027 113.236 114.232 113.909 113.621 114.764C113.341 115.155 113.988 115.528 114.265 115.141C115.399 113.556 117.283 112.659 118.281 110.958C119.461 108.948 118.673 106.563 117.211 104.935C116.299 103.919 115.154 103.143 114.031 102.381C113.633 102.111 113.259 102.757 113.655 103.026Z" fill="#E6E7E8"/>
<path d="M54.4388 48.3188C54.8345 48.0502 54.4605 47.4037 54.062 47.6742C52.9392 48.4364 51.7949 49.2121 50.8823 50.228C49.42 51.8559 48.6326 54.2406 49.8125 56.2514C50.8103 57.9517 52.6943 58.8491 53.8279 60.4335C54.1054 60.8212 54.7526 60.4481 54.4725 60.0567C53.861 59.2021 53.0666 58.5294 52.2785 57.845C51.615 57.2688 50.9349 56.671 50.4783 55.91C50.2298 55.489 50.0689 55.0222 50.0054 54.5374C49.942 54.0527 49.9772 53.5601 50.109 53.0893C50.6823 50.8852 52.6598 49.5264 54.4388 48.3188Z" fill="#E6E7E8"/>
<path d="M48.2177 48.3188C48.6134 48.0502 48.2395 47.4037 47.8409 47.6742C46.7181 48.4364 45.5738 49.2121 44.6612 50.228C43.1989 51.8559 42.4115 54.2406 43.5915 56.2514C44.5892 57.9517 46.4732 58.8491 47.6069 60.4335C47.8843 60.8212 48.5315 60.4481 48.2515 60.0567C47.6399 59.2021 46.8456 58.5294 46.0574 57.845C45.3939 57.2688 44.7138 56.671 44.2573 55.91C44.0087 55.489 43.8478 55.0222 43.7844 54.5374C43.7209 54.0527 43.7561 53.5601 43.8879 53.0893C44.4612 50.8852 46.4387 49.5264 48.2177 48.3188Z" fill="#E6E7E8"/>
</svg>
