<svg width="115" height="69" viewBox="0 0 115 69" fill="none" xmlns="http://www.w3.org/2000/svg">
<path d="M29.5 20.8475C15.7821 23.5562 0.5 41.8475 0.5 41.8475V69H115V0.847488C115 0.847488 100.977 -1.0594 92 0.847541C75.8958 4.26846 72.7778 21.8817 56.5 24.3475C45.9875 25.9399 39.931 18.7878 29.5 20.8475Z" fill="url(#paint0_linear_115_2666)"/>
<path d="M29.5 20.8475C15.7821 23.5562 0.5 41.8475 0.5 41.8475V69H115V0.847488C115 0.847488 100.977 -1.0594 92 0.847541C75.8958 4.26846 72.7778 21.8817 56.5 24.3475C45.9875 25.9399 39.931 18.7878 29.5 20.8475Z" fill="url(#paint1_linear_115_2666)"/>
<defs>
<linearGradient id="paint0_linear_115_2666" x1="46" y1="-2.5" x2="60" y2="59" gradientUnits="userSpaceOnUse">
<stop stop-color="#4592FC"/>
<stop offset="1" stop-color="white" stop-opacity="0"/>
</linearGradient>
<linearGradient id="paint1_linear_115_2666" x1="36" y1="-20" x2="60.5" y2="42.5" gradientUnits="userSpaceOnUse">
<stop stop-color="#4592FC"/>
<stop offset="1" stop-color="white" stop-opacity="0"/>
</linearGradient>
</defs>
</svg>
