<svg width="118" height="88" viewBox="0 0 118 88" fill="none" xmlns="http://www.w3.org/2000/svg">
<path d="M75.1573 63.3712H30.849C29.3465 63.3695 27.906 62.7718 26.8435 61.7094C25.781 60.6469 25.1834 59.2064 25.1817 57.7038V5.66734C25.1834 4.16479 25.781 2.72426 26.8435 1.6618C27.906 0.599335 29.3465 0.00169728 30.849 0H72.0707L80.8247 6.97751V57.7038C80.823 59.2064 80.2253 60.6469 79.1629 61.7094C78.1004 62.7718 76.6599 63.3695 75.1573 63.3712Z" fill="#E6E6E6"/>
<path d="M30.8497 1.63281C29.7797 1.63402 28.7539 2.05961 27.9973 2.81621C27.2407 3.57282 26.8151 4.59865 26.8139 5.66864V57.7051C26.8151 58.7751 27.2407 59.8009 27.9973 60.5575C28.7539 61.3141 29.7797 61.7397 30.8497 61.7409H75.158C76.228 61.7397 77.2538 61.3141 78.0104 60.5575C78.7671 59.8009 79.1926 58.7751 79.1938 57.7051V7.7648L71.5007 1.63281H30.8497Z" fill="white"/>
<path d="M66.54 16.7625H46.367C46.2431 16.7625 46.1204 16.7381 46.0059 16.6907C45.8914 16.6433 45.7873 16.5737 45.6997 16.4861C45.6121 16.3985 45.5426 16.2944 45.4951 16.1799C45.4477 16.0654 45.4233 15.9427 45.4233 15.8188C45.4233 15.6948 45.4477 15.5721 45.4951 15.4576C45.5426 15.3431 45.6121 15.2391 45.6997 15.1514C45.7873 15.0638 45.8914 14.9943 46.0059 14.9468C46.1204 14.8994 46.2431 14.875 46.367 14.875H66.54C66.6639 14.875 66.7866 14.8994 66.9011 14.9468C67.0157 14.9943 67.1197 15.0638 67.2073 15.1514C67.295 15.2391 67.3645 15.3431 67.4119 15.4576C67.4593 15.5721 67.4838 15.6948 67.4838 15.8188C67.4838 15.9427 67.4593 16.0654 67.4119 16.1799C67.3645 16.2944 67.295 16.3985 67.2073 16.4861C67.1197 16.5737 67.0157 16.6433 66.9011 16.6907C66.7866 16.7381 66.6639 16.7625 66.54 16.7625Z" fill="#CCCCCC"/>
<path d="M70.433 19.9481H46.367C46.1167 19.9481 45.8767 19.8486 45.6997 19.6717C45.5227 19.4947 45.4233 19.2546 45.4233 19.0043C45.4233 18.754 45.5227 18.514 45.6997 18.337C45.8767 18.16 46.1167 18.0605 46.367 18.0605H70.433C70.6833 18.0605 70.9234 18.16 71.1003 18.337C71.2773 18.514 71.3768 18.754 71.3768 19.0043C71.3768 19.2546 71.2773 19.4947 71.1003 19.6717C70.9234 19.8486 70.6833 19.9481 70.433 19.9481Z" fill="#CCCCCC"/>
<path d="M66.54 31.0379H46.367C46.1167 31.0379 45.8767 30.9385 45.6997 30.7615C45.5227 30.5845 45.4233 30.3445 45.4233 30.0942C45.4233 29.8438 45.5227 29.6038 45.6997 29.4268C45.8767 29.2498 46.1167 29.1504 46.367 29.1504H66.54C66.7903 29.1504 67.0303 29.2498 67.2073 29.4268C67.3843 29.6038 67.4838 29.8438 67.4838 30.0942C67.4838 30.3445 67.3843 30.5845 67.2073 30.7615C67.0303 30.9385 66.7903 31.0379 66.54 31.0379Z" fill="#CCCCCC"/>
<path d="M70.433 34.2215H46.367C46.1167 34.2215 45.8767 34.1221 45.6997 33.9451C45.5227 33.7681 45.4233 33.5281 45.4233 33.2777C45.4233 33.0274 45.5227 32.7874 45.6997 32.6104C45.8767 32.4334 46.1167 32.334 46.367 32.334H70.433C70.6833 32.334 70.9234 32.4334 71.1003 32.6104C71.2773 32.7874 71.3768 33.0274 71.3768 33.2777C71.3768 33.5281 71.2773 33.7681 71.1003 33.9451C70.9234 34.1221 70.6833 34.2215 70.433 34.2215Z" fill="#CCCCCC"/>
<path d="M66.54 45.3114H46.367C46.1167 45.3114 45.8767 45.2119 45.6997 45.0349C45.5227 44.8579 45.4233 44.6179 45.4233 44.3676C45.4233 44.1173 45.5227 43.8772 45.6997 43.7002C45.8767 43.5233 46.1167 43.4238 46.367 43.4238H66.54C66.7903 43.4238 67.0303 43.5233 67.2073 43.7002C67.3843 43.8772 67.4838 44.1173 67.4838 44.3676C67.4838 44.6179 67.3843 44.8579 67.2073 45.0349C67.0303 45.2119 66.7903 45.3114 66.54 45.3114Z" fill="#CCCCCC"/>
<path d="M70.433 48.4969H46.367C46.1167 48.4969 45.8767 48.3975 45.6997 48.2205C45.5227 48.0435 45.4233 47.8034 45.4233 47.5531C45.4233 47.3028 45.5227 47.0628 45.6997 46.8858C45.8767 46.7088 46.1167 46.6094 46.367 46.6094H70.433C70.6833 46.6094 70.9234 46.7088 71.1003 46.8858C71.2773 47.0628 71.3768 47.3028 71.3768 47.5531C71.3768 47.8034 71.2773 48.0435 71.1003 48.2205C70.9234 48.3975 70.6833 48.4969 70.433 48.4969Z" fill="#CCCCCC"/>
<path d="M37.9656 20.7456C39.8079 20.7456 41.3013 19.2521 41.3013 17.4099C41.3013 15.5677 39.8079 14.0742 37.9656 14.0742C36.1234 14.0742 34.6299 15.5677 34.6299 17.4099C34.6299 19.2521 36.1234 20.7456 37.9656 20.7456Z" fill="#6C63FF"/>
<path d="M37.6342 18.6834C37.5591 18.6836 37.4861 18.6593 37.426 18.6143L37.4223 18.6115L36.6384 18.0118C36.5651 17.9555 36.5172 17.8725 36.5052 17.781C36.4931 17.6894 36.5179 17.5968 36.5741 17.5235C36.6303 17.4503 36.7133 17.4023 36.8048 17.3901C36.8963 17.378 36.989 17.4027 37.0623 17.4588L37.5701 17.8482L38.7699 16.2828C38.7978 16.2466 38.8325 16.2161 38.872 16.1932C38.9116 16.1703 38.9554 16.1555 39.0007 16.1495C39.046 16.1435 39.0921 16.1465 39.1363 16.1583C39.1805 16.1701 39.2219 16.1905 39.2582 16.2184L39.2508 16.2288L39.2585 16.2184C39.3317 16.2747 39.3796 16.3577 39.3917 16.4493C39.4037 16.5408 39.379 16.6334 39.3229 16.7068L37.9116 18.5472C37.8789 18.5896 37.8369 18.6239 37.7889 18.6474C37.7408 18.671 37.688 18.6832 37.6345 18.683L37.6342 18.6834Z" fill="white"/>
<path d="M38.3094 35.021C40.1517 35.021 41.6451 33.5275 41.6451 31.6853C41.6451 29.843 40.1517 28.3496 38.3094 28.3496C36.4672 28.3496 34.9738 29.843 34.9738 31.6853C34.9738 33.5275 36.4672 35.021 38.3094 35.021Z" fill="#CCCCCC"/>
<path d="M37.9656 49.2964C39.8079 49.2964 41.3013 47.8029 41.3013 45.9607C41.3013 44.1184 39.8079 42.625 37.9656 42.625C36.1234 42.625 34.6299 44.1184 34.6299 45.9607C34.6299 47.8029 36.1234 49.2964 37.9656 49.2964Z" fill="#CCCCCC"/>
<path d="M80.6527 7.20302H73.7954C73.2948 7.20302 72.8147 7.00416 72.4607 6.65018C72.1067 6.2962 71.9078 5.8161 71.9078 5.3155V0.250785C71.9078 0.228611 71.9141 0.206885 71.9259 0.1881C71.9376 0.169315 71.9545 0.154232 71.9745 0.144579C71.9944 0.134925 72.0167 0.131093 72.0387 0.133523C72.0608 0.135952 72.0817 0.144544 72.0991 0.158313L80.7259 6.99258C80.7451 7.00779 80.7591 7.02859 80.7659 7.05211C80.7728 7.07563 80.7721 7.1007 80.7641 7.12383C80.756 7.14696 80.741 7.16702 80.721 7.18121C80.701 7.1954 80.6772 7.20302 80.6527 7.20302Z" fill="#E6E6E6"/>
<path d="M34.2346 73.1213L8.01956 78.647C7.26198 78.8058 6.47234 78.6576 5.82389 78.2349C5.17544 77.8123 4.72113 77.1496 4.56064 76.3924L0.0621781 55.0507C-0.0966166 54.2931 0.05158 53.5035 0.474255 52.855C0.896931 52.2066 1.55957 51.7522 2.31679 51.5917L28.5318 46.0661C29.2894 45.9073 30.079 46.0555 30.7275 46.4782C31.3759 46.9008 31.8302 47.5635 31.9907 48.3207L36.4892 69.6624C36.648 70.42 36.4998 71.2096 36.0771 71.8581C35.6544 72.5065 34.9918 72.9608 34.2346 73.1213Z" fill="white"/>
<path d="M34.2346 73.1213L8.01956 78.647C7.26198 78.8058 6.47234 78.6576 5.82389 78.2349C5.17544 77.8123 4.72113 77.1496 4.56064 76.3924L0.0621781 55.0507C-0.0966166 54.2931 0.05158 53.5035 0.474255 52.855C0.896931 52.2066 1.55957 51.7522 2.31679 51.5917L28.5318 46.0661C29.2894 45.9073 30.079 46.0555 30.7275 46.4782C31.3759 46.9008 31.8302 47.5635 31.9907 48.3207L36.4892 69.6624C36.648 70.42 36.4998 71.2096 36.0771 71.8581C35.6544 72.5065 34.9918 72.9608 34.2346 73.1213ZM2.38763 51.9278C1.7195 52.0695 1.13482 52.4703 0.761872 53.0425C0.388923 53.6147 0.258158 54.3114 0.398266 54.9798L4.89673 76.3216C5.03835 76.9897 5.43921 77.5744 6.01137 77.9473C6.58353 78.3203 7.28026 78.451 7.94872 78.3109L34.1637 72.7852C34.8319 72.6436 35.4165 72.2428 35.7895 71.6706C36.1624 71.0985 36.2932 70.4017 36.1531 69.7333L31.6546 48.3915C31.513 47.7234 31.1122 47.1387 30.54 46.7658C29.9678 46.3928 29.2711 46.2621 28.6027 46.4022L2.38763 51.9278Z" fill="#3F3D56"/>
<path d="M26.9039 53.1027L13.6735 55.8914C13.5578 55.9183 13.4361 55.9002 13.3331 55.8408C13.2302 55.7814 13.1536 55.6851 13.1189 55.5714C13.1031 55.5122 13.0994 55.4503 13.1083 55.3895C13.1171 55.3288 13.1383 55.2705 13.1704 55.2182C13.2025 55.1659 13.2449 55.1207 13.2951 55.0854C13.3453 55.05 13.4021 55.0252 13.4622 55.0126L26.9299 52.1738C27.4557 52.4702 27.2897 53.0213 26.9039 53.1027Z" fill="#CCCCCC"/>
<path d="M27.3924 55.4249L14.1621 58.2137C14.0463 58.2405 13.9246 58.2224 13.8217 58.163C13.7187 58.1037 13.6422 58.0074 13.6075 57.8937C13.5916 57.8344 13.588 57.7725 13.5968 57.7118C13.6057 57.6511 13.6268 57.5928 13.6589 57.5405C13.691 57.4882 13.7335 57.443 13.7836 57.4076C13.8338 57.3723 13.8906 57.3475 13.9507 57.3349L27.4184 54.4961C27.9443 54.7924 27.7782 55.3436 27.3924 55.4249Z" fill="#CCCCCC"/>
<path d="M11.5807 60.1355L7.54291 60.9865C7.41105 61.0142 7.27359 60.9884 7.16072 60.9148C7.04785 60.8413 6.96877 60.7259 6.94085 60.5941L5.93649 55.8292C5.90884 55.6973 5.93462 55.5599 6.0082 55.447C6.08177 55.3341 6.19712 55.2551 6.32893 55.2271L10.3667 54.376C10.4986 54.3484 10.636 54.3742 10.7489 54.4478C10.8617 54.5214 10.9408 54.6367 10.9688 54.7685L11.9731 59.5334C12.0008 59.6653 11.975 59.8027 11.9014 59.9156C11.8278 60.0285 11.7125 60.1075 11.5807 60.1355Z" fill="#CCCCCC"/>
<path d="M28.356 60.1847L8.16401 64.4409C8.04823 64.4677 7.92657 64.4496 7.82362 64.3902C7.72067 64.3308 7.6441 64.2346 7.60941 64.1209C7.59355 64.0616 7.58993 63.9997 7.59877 63.939C7.60762 63.8783 7.62874 63.82 7.66086 63.7677C7.69298 63.7154 7.73542 63.6702 7.78558 63.6348C7.83575 63.5995 7.89259 63.5747 7.95265 63.562L28.3821 59.2559C28.908 59.5522 28.7418 60.1034 28.356 60.1847Z" fill="#CCCCCC"/>
<path d="M28.8446 62.505L8.65259 66.7612C8.53681 66.788 8.41515 66.7699 8.3122 66.7105C8.20925 66.6511 8.13269 66.5549 8.098 66.4412C8.08213 66.3819 8.07851 66.32 8.08736 66.2593C8.09621 66.1986 8.11733 66.1403 8.14945 66.088C8.18157 66.0357 8.224 65.9905 8.27417 65.9551C8.32434 65.9198 8.38118 65.895 8.44123 65.8823L28.8707 61.5762C29.3966 61.8725 29.2304 62.4237 28.8446 62.505Z" fill="#CCCCCC"/>
<path d="M29.3344 64.8234L9.14239 69.0795C9.02662 69.1064 8.90496 69.0883 8.80201 69.0289C8.69906 68.9695 8.6225 68.8732 8.58781 68.7596C8.57194 68.7003 8.56832 68.6384 8.57717 68.5777C8.58601 68.5169 8.60714 68.4586 8.63926 68.4063C8.67138 68.354 8.71381 68.3088 8.76398 68.2735C8.81414 68.2381 8.87099 68.2134 8.93104 68.2007L29.3605 63.8945C29.8864 64.1909 29.7202 64.7421 29.3344 64.8234Z" fill="#CCCCCC"/>
<path d="M29.823 67.1457L9.63099 71.4018C9.51521 71.4287 9.39354 71.4106 9.29059 71.3512C9.18764 71.2918 9.11108 71.1955 9.07639 71.0818C9.06053 71.0225 9.05691 70.9606 9.06575 70.8999C9.0746 70.8392 9.09572 70.7809 9.12784 70.7286C9.15996 70.6763 9.2024 70.6311 9.25256 70.5957C9.30273 70.5604 9.35957 70.5356 9.41963 70.523L29.8491 66.2168C30.375 66.5131 30.2088 67.0643 29.823 67.1457Z" fill="#CCCCCC"/>
<path d="M30.3116 69.466L10.1196 73.7221C10.0038 73.749 9.88213 73.7309 9.77918 73.6715C9.67623 73.6121 9.59967 73.5158 9.56498 73.4021C9.54911 73.3429 9.54549 73.281 9.55434 73.2202C9.56319 73.1595 9.58431 73.1012 9.61643 73.0489C9.64855 72.9966 9.69098 72.9514 9.74115 72.9161C9.79132 72.8807 9.84816 72.856 9.90821 72.8433L30.3377 68.5371C30.8636 68.8335 30.6973 69.3847 30.3116 69.466Z" fill="#CCCCCC"/>
<path d="M116.44 73.6121L93.0734 86.7187C92.3979 87.0966 91.6001 87.1911 90.8549 86.9815C90.1098 86.7719 89.4783 86.2753 89.0988 85.6007L78.4287 66.5782C78.0508 65.9027 77.9563 65.1048 78.1659 64.3597C78.3755 63.6146 78.8721 62.983 79.5468 62.6036L102.913 49.497C103.588 49.1191 104.386 49.0246 105.131 49.2342C105.877 49.4438 106.508 49.9404 106.888 50.6151L117.558 69.6376C117.936 70.3131 118.03 71.1109 117.82 71.856C117.611 72.6012 117.114 73.2327 116.44 73.6121Z" fill="white"/>
<path d="M116.44 73.6121L93.0734 86.7187C92.3979 87.0966 91.6001 87.1911 90.8549 86.9815C90.1098 86.7719 89.4783 86.2753 89.0988 85.6007L78.4287 66.5782C78.0508 65.9027 77.9563 65.1048 78.1659 64.3597C78.3755 63.6146 78.8721 62.983 79.5468 62.6036L102.913 49.497C103.588 49.1191 104.386 49.0246 105.131 49.2342C105.877 49.4438 106.508 49.9404 106.888 50.6151L117.558 69.6376C117.936 70.3131 118.03 71.1109 117.82 71.856C117.611 72.6012 117.114 73.2327 116.44 73.6121ZM79.7148 62.9032C79.1195 63.238 78.6813 63.7952 78.4964 64.4527C78.3115 65.1101 78.3949 65.8141 78.7283 66.4102L89.3984 85.4326C89.7332 86.0279 90.2904 86.4661 90.9479 86.6511C91.6054 86.836 92.3093 86.7526 92.9054 86.4191L116.272 73.3126C116.867 72.9778 117.305 72.4205 117.49 71.7631C117.675 71.1056 117.592 70.4016 117.258 69.8056L106.588 50.7831C106.253 50.1878 105.696 49.7496 105.038 49.5647C104.381 49.3798 103.677 49.4632 103.081 49.7966L79.7148 62.9032Z" fill="#3F3D56"/>
<path d="M103.461 56.6989L91.6683 63.3136C91.5659 63.3738 91.4444 63.3929 91.3284 63.367C91.2124 63.341 91.1105 63.2721 91.0435 63.1739C91.0106 63.1221 90.9887 63.0641 90.979 63.0035C90.9692 62.9429 90.972 62.881 90.987 62.8215C91.002 62.762 91.029 62.7062 91.0663 62.6574C91.1037 62.6087 91.1505 62.5681 91.204 62.5381L103.208 55.8047C103.799 55.9304 103.805 56.506 103.461 56.6989Z" fill="#CCCCCC"/>
<path d="M104.621 58.7672L92.8288 65.3819C92.7264 65.4422 92.6049 65.4612 92.4889 65.4353C92.3729 65.4094 92.2711 65.3404 92.204 65.2423C92.1711 65.1905 92.1492 65.1325 92.1395 65.0719C92.1298 65.0113 92.1325 64.9493 92.1475 64.8898C92.1626 64.8303 92.1895 64.7745 92.2269 64.7258C92.2642 64.6771 92.311 64.6364 92.3645 64.6064L104.369 57.873C104.959 57.9987 104.965 58.5743 104.621 58.7672Z" fill="#CCCCCC"/>
<path d="M90.9398 67.9893L87.3409 70.008C87.2233 70.0738 87.0844 70.0903 86.9547 70.0538C86.825 70.0173 86.7151 69.9308 86.649 69.8134L84.2667 65.5663C84.2009 65.4487 84.1845 65.3098 84.221 65.1801C84.2575 65.0504 84.3439 64.9405 84.4614 64.8745L88.0603 62.8557C88.1779 62.79 88.3168 62.7735 88.4465 62.81C88.5762 62.8465 88.6861 62.9329 88.7522 63.0503L91.1344 67.2975C91.2002 67.415 91.2167 67.5539 91.1802 67.6836C91.1437 67.8133 91.0573 67.9232 90.9398 67.9893Z" fill="#CCCCCC"/>
<path d="M106.963 63.0212L88.9648 73.1165C88.8624 73.1767 88.7409 73.1958 88.6249 73.1699C88.5089 73.1439 88.407 73.075 88.34 72.9768C88.3071 72.925 88.2852 72.867 88.2755 72.8064C88.2658 72.7458 88.2685 72.6839 88.2835 72.6244C88.2985 72.5649 88.3255 72.509 88.3628 72.4603C88.4002 72.4116 88.447 72.371 88.5005 72.341L106.71 62.127C107.3 62.2526 107.306 62.8283 106.963 63.0212Z" fill="#CCCCCC"/>
<path d="M108.123 65.0896L90.1254 75.1848C90.0229 75.245 89.9014 75.2641 89.7854 75.2382C89.6694 75.2123 89.5676 75.1433 89.5005 75.0452C89.4676 74.9934 89.4457 74.9354 89.436 74.8748C89.4263 74.8142 89.429 74.7522 89.444 74.6927C89.4591 74.6332 89.4861 74.5774 89.5234 74.5287C89.5607 74.48 89.6075 74.4393 89.6611 74.4093L107.87 64.1953C108.461 64.321 108.467 64.8967 108.123 65.0896Z" fill="#CCCCCC"/>
<path d="M109.284 67.1579L91.2859 77.2532C91.1835 77.3134 91.062 77.3325 90.946 77.3066C90.83 77.2807 90.7282 77.2117 90.6611 77.1136C90.6282 77.0617 90.6063 77.0037 90.5966 76.9431C90.5869 76.8825 90.5896 76.8206 90.6046 76.7611C90.6197 76.7016 90.6466 76.6458 90.684 76.597C90.7213 76.5483 90.7681 76.5077 90.8216 76.4777L109.031 66.2637C109.621 66.3893 109.627 66.965 109.284 67.1579Z" fill="#CCCCCC"/>
<path d="M110.443 69.2282L92.4452 79.3235C92.3428 79.3837 92.2213 79.4028 92.1053 79.3769C91.9893 79.351 91.8875 79.282 91.8204 79.1839C91.7875 79.132 91.7656 79.074 91.7559 79.0135C91.7462 78.9529 91.7489 78.8909 91.7639 78.8314C91.779 78.7719 91.8059 78.7161 91.8433 78.6674C91.8806 78.6186 91.9274 78.578 91.9809 78.548L110.19 68.334C110.781 68.4597 110.787 69.0354 110.443 69.2282Z" fill="#CCCCCC"/>
<path d="M111.603 71.2966L93.6058 81.3918C93.5033 81.4521 93.3818 81.4712 93.2658 81.4453C93.1498 81.4193 93.048 81.3503 92.9809 81.2522C92.9481 81.2004 92.9261 81.1424 92.9164 81.0818C92.9067 81.0212 92.9094 80.9593 92.9245 80.8998C92.9395 80.8403 92.9665 80.7844 93.0038 80.7357C93.0411 80.687 93.0879 80.6464 93.1415 80.6163L111.351 70.4023C111.941 70.528 111.947 71.1037 111.603 71.2966Z" fill="#CCCCCC"/>
</svg>
