<svg width="120" height="85" viewBox="0 0 120 85" fill="none" xmlns="http://www.w3.org/2000/svg">
<path d="M119.396 84.9325H0.158297C0.116272 84.9323 0.0760104 84.9092 0.0463372 84.8681C0.0166641 84.827 0 84.7713 0 84.7133C0 84.6553 0.0166641 84.5997 0.0463372 84.5586C0.0760104 84.5175 0.116272 84.4943 0.158297 84.4941H119.396C119.438 84.4943 119.478 84.5175 119.508 84.5586C119.537 84.5997 119.554 84.6553 119.554 84.7133C119.554 84.7713 119.537 84.827 119.508 84.8681C119.478 84.9092 119.438 84.9323 119.396 84.9325Z" fill="#3F3D56"/>
<path d="M50.2835 10.5742C50.9409 10.5742 51.4739 10.0413 51.4739 9.3838C51.4739 8.72634 50.9409 8.19336 50.2835 8.19336C49.626 8.19336 49.093 8.72634 49.093 9.3838C49.093 10.0413 49.626 10.5742 50.2835 10.5742Z" fill="#F2F2F2"/>
<path d="M45.5387 10.5742C46.1962 10.5742 46.7292 10.0413 46.7292 9.3838C46.7292 8.72634 46.1962 8.19336 45.5387 8.19336C44.8812 8.19336 44.3483 8.72634 44.3483 9.3838C44.3483 10.0413 44.8812 10.5742 45.5387 10.5742Z" fill="#F2F2F2"/>
<path d="M40.7951 10.5742C41.4525 10.5742 41.9855 10.0413 41.9855 9.3838C41.9855 8.72634 41.4525 8.19336 40.7951 8.19336C40.1376 8.19336 39.6046 8.72634 39.6046 9.3838C39.6046 10.0413 40.1376 10.5742 40.7951 10.5742Z" fill="#F2F2F2"/>
<path d="M36.0503 10.5742C36.7078 10.5742 37.2407 10.0413 37.2407 9.3838C37.2407 8.72634 36.7078 8.19336 36.0503 8.19336C35.3928 8.19336 34.8599 8.72634 34.8599 9.3838C34.8599 10.0413 35.3928 10.5742 36.0503 10.5742Z" fill="#F2F2F2"/>
<path d="M50.2835 15.5449C50.9409 15.5449 51.4739 15.012 51.4739 14.3545C51.4739 13.697 50.9409 13.1641 50.2835 13.1641C49.626 13.1641 49.093 13.697 49.093 14.3545C49.093 15.012 49.626 15.5449 50.2835 15.5449Z" fill="#F2F2F2"/>
<path d="M45.5387 15.5449C46.1962 15.5449 46.7292 15.012 46.7292 14.3545C46.7292 13.697 46.1962 13.1641 45.5387 13.1641C44.8812 13.1641 44.3483 13.697 44.3483 14.3545C44.3483 15.012 44.8812 15.5449 45.5387 15.5449Z" fill="#F2F2F2"/>
<path d="M40.7951 15.5449C41.4525 15.5449 41.9855 15.012 41.9855 14.3545C41.9855 13.697 41.4525 13.1641 40.7951 13.1641C40.1376 13.1641 39.6046 13.697 39.6046 14.3545C39.6046 15.012 40.1376 15.5449 40.7951 15.5449Z" fill="#F2F2F2"/>
<path d="M36.0503 15.5449C36.7078 15.5449 37.2407 15.012 37.2407 14.3545C37.2407 13.697 36.7078 13.1641 36.0503 13.1641C35.3928 13.1641 34.8599 13.697 34.8599 14.3545C34.8599 15.012 35.3928 15.5449 36.0503 15.5449Z" fill="#F2F2F2"/>
<path d="M50.2835 20.5157C50.9409 20.5157 51.4739 19.9827 51.4739 19.3252C51.4739 18.6677 50.9409 18.1348 50.2835 18.1348C49.626 18.1348 49.093 18.6677 49.093 19.3252C49.093 19.9827 49.626 20.5157 50.2835 20.5157Z" fill="#F2F2F2"/>
<path d="M45.5387 20.5157C46.1962 20.5157 46.7292 19.9827 46.7292 19.3252C46.7292 18.6677 46.1962 18.1348 45.5387 18.1348C44.8812 18.1348 44.3483 18.6677 44.3483 19.3252C44.3483 19.9827 44.8812 20.5157 45.5387 20.5157Z" fill="#F2F2F2"/>
<path d="M40.7951 20.5157C41.4525 20.5157 41.9855 19.9827 41.9855 19.3252C41.9855 18.6677 41.4525 18.1348 40.7951 18.1348C40.1376 18.1348 39.6046 18.6677 39.6046 19.3252C39.6046 19.9827 40.1376 20.5157 40.7951 20.5157Z" fill="#F2F2F2"/>
<path d="M36.0503 20.5157C36.7078 20.5157 37.2407 19.9827 37.2407 19.3252C37.2407 18.6677 36.7078 18.1348 36.0503 18.1348C35.3928 18.1348 34.8599 18.6677 34.8599 19.3252C34.8599 19.9827 35.3928 20.5157 36.0503 20.5157Z" fill="#F2F2F2"/>
<path d="M50.2835 25.4864C50.9409 25.4864 51.4739 24.9534 51.4739 24.2959C51.4739 23.6384 50.9409 23.1055 50.2835 23.1055C49.626 23.1055 49.093 23.6384 49.093 24.2959C49.093 24.9534 49.626 25.4864 50.2835 25.4864Z" fill="#F2F2F2"/>
<path d="M45.5387 25.4864C46.1962 25.4864 46.7292 24.9534 46.7292 24.2959C46.7292 23.6384 46.1962 23.1055 45.5387 23.1055C44.8812 23.1055 44.3483 23.6384 44.3483 24.2959C44.3483 24.9534 44.8812 25.4864 45.5387 25.4864Z" fill="#F2F2F2"/>
<path d="M40.7951 25.4864C41.4525 25.4864 41.9855 24.9534 41.9855 24.2959C41.9855 23.6384 41.4525 23.1055 40.7951 23.1055C40.1376 23.1055 39.6046 23.6384 39.6046 24.2959C39.6046 24.9534 40.1376 25.4864 40.7951 25.4864Z" fill="#F2F2F2"/>
<path d="M36.0503 25.4864C36.7078 25.4864 37.2407 24.9534 37.2407 24.2959C37.2407 23.6384 36.7078 23.1055 36.0503 23.1055C35.3928 23.1055 34.8599 23.6384 34.8599 24.2959C34.8599 24.9534 35.3928 25.4864 36.0503 25.4864Z" fill="#F2F2F2"/>
<path d="M50.2835 30.4571C50.9409 30.4571 51.4739 29.9241 51.4739 29.2666C51.4739 28.6092 50.9409 28.0762 50.2835 28.0762C49.626 28.0762 49.093 28.6092 49.093 29.2666C49.093 29.9241 49.626 30.4571 50.2835 30.4571Z" fill="#F2F2F2"/>
<path d="M45.5387 30.4571C46.1962 30.4571 46.7292 29.9241 46.7292 29.2666C46.7292 28.6092 46.1962 28.0762 45.5387 28.0762C44.8812 28.0762 44.3483 28.6092 44.3483 29.2666C44.3483 29.9241 44.8812 30.4571 45.5387 30.4571Z" fill="#F2F2F2"/>
<path d="M40.7951 30.4571C41.4525 30.4571 41.9855 29.9241 41.9855 29.2666C41.9855 28.6092 41.4525 28.0762 40.7951 28.0762C40.1376 28.0762 39.6046 28.6092 39.6046 29.2666C39.6046 29.9241 40.1376 30.4571 40.7951 30.4571Z" fill="#F2F2F2"/>
<path d="M36.0503 30.4571C36.7078 30.4571 37.2407 29.9241 37.2407 29.2666C37.2407 28.6092 36.7078 28.0762 36.0503 28.0762C35.3928 28.0762 34.8599 28.6092 34.8599 29.2666C34.8599 29.9241 35.3928 30.4571 36.0503 30.4571Z" fill="#F2F2F2"/>
<path d="M50.2835 35.4258C50.9409 35.4258 51.4739 34.8928 51.4739 34.2354C51.4739 33.5779 50.9409 33.0449 50.2835 33.0449C49.626 33.0449 49.093 33.5779 49.093 34.2354C49.093 34.8928 49.626 35.4258 50.2835 35.4258Z" fill="#F2F2F2"/>
<path d="M45.5387 35.4258C46.1962 35.4258 46.7292 34.8928 46.7292 34.2354C46.7292 33.5779 46.1962 33.0449 45.5387 33.0449C44.8812 33.0449 44.3483 33.5779 44.3483 34.2354C44.3483 34.8928 44.8812 35.4258 45.5387 35.4258Z" fill="#F2F2F2"/>
<path d="M40.7951 35.4258C41.4525 35.4258 41.9855 34.8928 41.9855 34.2354C41.9855 33.5779 41.4525 33.0449 40.7951 33.0449C40.1376 33.0449 39.6046 33.5779 39.6046 34.2354C39.6046 34.8928 40.1376 35.4258 40.7951 35.4258Z" fill="#F2F2F2"/>
<path d="M36.0503 35.4258C36.7078 35.4258 37.2407 34.8928 37.2407 34.2354C37.2407 33.5779 36.7078 33.0449 36.0503 33.0449C35.3928 33.0449 34.8599 33.5779 34.8599 34.2354C34.8599 34.8928 35.3928 35.4258 36.0503 35.4258Z" fill="#F2F2F2"/>
<path d="M39.8223 66.7112V67.0794C39.8228 67.6895 40.0654 68.2744 40.4968 68.7059C40.9282 69.1373 41.5132 69.3799 42.1233 69.3804H58.6908C59.301 69.3802 59.8861 69.1377 60.3176 68.7062C60.7491 68.2747 60.9916 67.6896 60.9918 67.0794V66.7112C60.9929 66.1727 60.8038 65.6512 60.4579 65.2385C60.3428 65.1015 60.2125 64.978 60.0695 64.8704C60.0695 64.8704 50.9611 64.6642 50.9611 64.4102H42.1233C41.5133 64.411 40.9285 64.6537 40.4972 65.0851C40.0658 65.5164 39.8231 66.1012 39.8223 66.7112Z" fill="#CCCCCC"/>
<path d="M62 66.301V66.6692C62.0005 67.2793 62.2431 67.8643 62.6745 68.2957C63.106 68.7271 63.6909 68.9697 64.301 68.9702H80.8685C81.4787 68.97 82.0638 68.7275 82.4953 68.296C82.9268 67.8646 83.1693 67.2794 83.1695 66.6692V66.301C83.1707 65.7626 82.9816 65.241 82.6356 64.8284C82.5205 64.6914 82.3902 64.5679 82.2472 64.4602C82.2472 64.4602 73.1388 64.254 73.1388 64H64.301C63.691 64.0008 63.1062 64.2436 62.6749 64.6749C62.2435 65.1062 62.0008 65.691 62 66.301Z" fill="#CCCCCC"/>
<path d="M51.7368 69.2891H49.3438V84.752H51.7368V69.2891Z" fill="#CCCCCC"/>
<path d="M74.3931 69H72V84.463H74.3931V69Z" fill="#CCCCCC"/>
<path d="M58.5469 84.6684C58.5469 84.927 54.9206 84.7684 50.4473 84.7684C45.974 84.7684 42.3477 84.927 42.3477 84.6684C42.3477 84.4098 45.974 82.3594 50.4473 82.3594C54.9206 82.3594 58.5469 84.4098 58.5469 84.6684Z" fill="#CCCCCC"/>
<path d="M81.1993 84.309C81.1993 84.5676 77.573 84.409 73.0996 84.409C68.6263 84.409 65 84.5676 65 84.309C65 84.0504 68.6263 82 73.0996 82C77.573 82 81.1993 84.0504 81.1993 84.309Z" fill="#CCCCCC"/>
<path d="M94.7605 55.3633H20.0228C19.7055 55.3633 19.4011 55.4893 19.1768 55.7137C18.9524 55.9381 18.8263 56.2425 18.8263 56.5598C18.8263 56.8772 18.9524 57.1815 19.1768 57.4059C19.4011 57.6303 19.7055 57.7564 20.0228 57.7564H22.1398V83.8041C22.1398 84.1214 22.2658 84.4258 22.4902 84.6502C22.7146 84.8746 23.019 85.0006 23.3363 85.0006C23.6537 85.0006 23.958 84.8746 24.1824 84.6502C24.4068 84.4258 24.5329 84.1214 24.5329 83.8041V60.0556L37.9472 84.3688C38.1062 84.643 38.3675 84.8428 38.6737 84.9246C38.9799 85.0063 39.306 84.9632 39.5805 84.8047C39.8549 84.6463 40.0553 84.3854 40.1377 84.0793C40.22 83.7733 40.1776 83.4471 40.0196 83.1723L25.997 57.7564H90.0664V57.7719L76.0523 83.1723C75.8937 83.4471 75.8507 83.7737 75.9328 84.0802C76.0149 84.3867 76.2154 84.6481 76.4902 84.8067C76.7651 84.9654 77.0916 85.0084 77.3982 84.9263C77.7047 84.8442 77.966 84.6436 78.1247 84.3688L90.0664 62.7247V83.8041C90.0664 84.1214 90.1924 84.4258 90.4168 84.6502C90.6412 84.8746 90.9455 85.0006 91.2629 85.0006C91.5802 85.0006 91.8846 84.8746 92.109 84.6502C92.3334 84.4258 92.4594 84.1214 92.4594 83.8041V58.3873L92.8075 57.7564H94.7605C95.0778 57.7564 95.3821 57.6303 95.6065 57.4059C95.8309 57.1815 95.957 56.8772 95.957 56.5598C95.957 56.2425 95.8309 55.9381 95.6065 55.7137C95.3821 55.4893 95.0778 55.3633 94.7605 55.3633Z" fill="#3F3D56"/>
<path d="M76.1868 55H61.6443C61.2885 55 61 55.2885 61 55.6443C61 56.0001 61.2885 56.2886 61.6443 56.2886H76.1868C76.5427 56.2886 76.8311 56.0001 76.8311 55.6443C76.8311 55.2885 76.5427 55 76.1868 55Z" fill="#CCCCCC"/>
<path d="M46.1868 55H31.6443C31.2885 55 31 55.2885 31 55.6443C31 56.0001 31.2885 56.2886 31.6443 56.2886H46.1868C46.5427 56.2886 46.8311 56.0001 46.8311 55.6443C46.8311 55.2885 46.5427 55 46.1868 55Z" fill="#CCCCCC"/>
<path d="M84.5799 56.4131H68.1965C67.8793 56.4128 67.5752 56.2866 67.3509 56.0623C67.1265 55.838 67.0004 55.5338 67 55.2166V46.1965C67.0004 45.8793 67.1265 45.5752 67.3509 45.3509C67.5752 45.1265 67.8793 45.0004 68.1965 45H84.5799C84.8971 45.0004 85.2013 45.1265 85.4256 45.3509C85.6499 45.5752 85.7761 45.8793 85.7765 46.1965V55.2166C85.7761 55.5338 85.6499 55.838 85.4256 56.0623C85.2013 56.2866 84.8971 56.4128 84.5799 56.4131Z" fill="#CCCCCC"/>
<path d="M55.5799 56.4131H39.1965C38.8793 56.4128 38.5752 56.2866 38.3509 56.0623C38.1265 55.838 38.0004 55.5338 38 55.2166V46.1965C38.0004 45.8793 38.1265 45.5752 38.3509 45.3509C38.5752 45.1265 38.8793 45.0004 39.1965 45H55.5799C55.8971 45.0004 56.2013 45.1265 56.4256 45.3509C56.6499 45.5752 56.7761 45.8793 56.7765 46.1965V55.2166C56.7761 55.5338 56.6499 55.838 56.4256 56.0623C56.2013 56.2866 55.8971 56.4128 55.5799 56.4131Z" fill="#CCCCCC"/>
<path d="M77.1045 52.209C77.7145 52.209 78.209 51.7145 78.209 51.1045C78.209 50.4945 77.7145 50 77.1045 50C76.4945 50 76 50.4945 76 51.1045C76 51.7145 76.4945 52.209 77.1045 52.209Z" fill="white"/>
<path d="M48.1045 52.209C48.7145 52.209 49.209 51.7145 49.209 51.1045C49.209 50.4945 48.7145 50 48.1045 50C47.4945 50 47 50.4945 47 51.1045C47 51.7145 47.4945 52.209 48.1045 52.209Z" fill="white"/>
<path d="M86.0941 33.6911V1.38456C86.0945 1.01748 86.2405 0.665556 86.5001 0.40599C86.7597 0.146424 87.1116 0.000417544 87.4787 0H113.016C113.383 0.000417544 113.735 0.146424 113.995 0.40599C114.254 0.665556 114.4 1.01748 114.401 1.38456V33.6911C114.4 34.0582 114.254 34.4101 113.995 34.6697C113.735 34.9292 113.383 35.0752 113.016 35.0757H87.4787C87.1116 35.0752 86.7597 34.9292 86.5001 34.6697C86.2405 34.4101 86.0945 34.0582 86.0941 33.6911ZM87.4787 0.307682C87.1932 0.308003 86.9194 0.421562 86.7176 0.623448C86.5157 0.825334 86.4021 1.09906 86.4018 1.38456V33.6911C86.4021 33.9766 86.5157 34.2503 86.7176 34.4522C86.9194 34.6541 87.1932 34.7677 87.4787 34.768H113.016C113.302 34.7677 113.575 34.6541 113.777 34.4522C113.979 34.2503 114.093 33.9766 114.093 33.6911V1.38456C114.093 1.09906 113.979 0.825334 113.777 0.623448C113.575 0.421562 113.302 0.308003 113.016 0.307682H87.4787Z" fill="#E6E6E6"/>
<path d="M101.679 14.8356V8.20205C101.68 8.01851 101.753 7.84254 101.882 7.71275C102.012 7.58297 102.188 7.50997 102.372 7.50977H107.993C108.177 7.50997 108.353 7.58297 108.482 7.71275C108.612 7.84254 108.685 8.01851 108.685 8.20205V14.8356C108.685 15.0191 108.612 15.1951 108.482 15.3249C108.353 15.4547 108.177 15.5277 107.993 15.5279H102.372C102.188 15.5277 102.012 15.4547 101.882 15.3249C101.753 15.1951 101.68 15.0191 101.679 14.8356Z" fill="#6C63FF"/>
<path d="M90.7561 17.9137V11.2802C90.7563 11.0966 90.8293 10.9207 90.9591 10.7909C91.0889 10.6611 91.2648 10.5881 91.4484 10.5879H97.0697C97.2533 10.5881 97.4292 10.6611 97.559 10.7909C97.6888 10.9207 97.7618 11.0966 97.762 11.2802V17.9137C97.7618 18.0973 97.6888 18.2732 97.559 18.403C97.4292 18.5328 97.2533 18.6058 97.0697 18.606H91.4484C91.2648 18.6058 91.0889 18.5328 90.9591 18.403C90.8293 18.2732 90.7563 18.0973 90.7561 17.9137Z" fill="#CCCCCC"/>
<path d="M99.5253 27.2965V20.663C99.5255 20.4794 99.5985 20.3035 99.7283 20.1737C99.858 20.0439 100.034 19.9709 100.218 19.9707H105.839C106.022 19.9709 106.198 20.0439 106.328 20.1737C106.458 20.3035 106.531 20.4794 106.531 20.663V27.2965C106.531 27.4801 106.458 27.656 106.328 27.7858C106.198 27.9156 106.022 27.9886 105.839 27.9888H100.218C100.034 27.9886 99.858 27.9156 99.7283 27.7858C99.5985 27.6561 99.5255 27.4801 99.5253 27.2965Z" fill="#FF6584"/>
</svg>
