<svg width="136" height="99" viewBox="0 0 136 99" fill="none" xmlns="http://www.w3.org/2000/svg">
<path d="M117.26 16.3763C120.07 16.3763 122.348 14.0981 122.348 11.2878C122.348 8.47744 120.07 6.19922 117.26 6.19922C114.449 6.19922 112.171 8.47744 112.171 11.2878C112.171 14.0981 114.449 16.3763 117.26 16.3763Z" fill="#6C63FF"/>
<path d="M116.756 13.2276C116.642 13.2277 116.531 13.1907 116.439 13.122L116.433 13.1178L115.237 12.203C115.005 12.0244 114.96 11.6908 115.139 11.4579C115.318 11.2249 115.651 11.1809 115.884 11.3594L116.659 11.9534L118.489 9.56546C118.668 9.33263 119.001 9.28858 119.234 9.46708L119.223 9.48298L119.234 9.4672C119.467 9.64594 119.511 9.97922 119.333 10.2121L117.18 13.0197C117.079 13.1508 116.922 13.2274 116.757 13.2269L116.756 13.2276Z" fill="white"/>
<path d="M117.26 50.7767C120.07 50.7767 122.348 48.4985 122.348 45.6882C122.348 42.8778 120.07 40.5996 117.26 40.5996C114.449 40.5996 112.171 42.8778 112.171 45.6882C112.171 48.4985 114.449 50.7767 117.26 50.7767Z" fill="#6C63FF"/>
<path d="M116.756 47.6299C116.642 47.6301 116.531 47.593 116.439 47.5244L116.433 47.5201L115.237 46.6053C115.005 46.4267 114.96 46.0931 115.139 45.8602C115.318 45.6273 115.651 45.5832 115.884 45.7618L116.659 46.3558L118.489 43.9678C118.668 43.735 119.001 43.6909 119.234 43.8694L119.223 43.8853L119.234 43.8696C119.467 44.0483 119.511 44.3816 119.333 44.6145L117.18 47.422C117.079 47.5531 116.922 47.6297 116.757 47.6293L116.756 47.6299Z" fill="white"/>
<path d="M98.0943 56.9755H0V34.4004H98.0943V56.9755Z" fill="white"/>
<path d="M14.1572 41.8652C13.6293 41.8652 13.2014 42.2932 13.2014 42.821C13.2014 43.3489 13.6293 43.7768 14.1572 43.7768H83.9411C84.4689 43.7768 84.8969 43.3489 84.8969 42.821C84.8969 42.2932 84.4689 41.8652 83.9411 41.8652H14.1572Z" fill="#6C63FF"/>
<path d="M14.1578 47.5996C13.6299 47.5985 13.2011 48.0255 13.2 48.5534C13.1988 49.0813 13.6259 49.5101 14.1537 49.5112H58.2718C58.7997 49.5112 59.2276 49.0833 59.2276 48.5554C59.2276 48.0275 58.7997 47.5996 58.2718 47.5996L14.1578 47.5996Z" fill="#6C63FF"/>
<path d="M98.0943 56.9755H0V34.4004H98.0943V56.9755ZM1.61251 55.363H96.4818V36.0129H1.61251V55.363Z" fill="#E5E5E5"/>
<path d="M98.0943 91.3759H0V68.8008H98.0943V91.3759Z" fill="white"/>
<path d="M14.1572 76.2637C13.6293 76.2637 13.2014 76.6916 13.2014 77.2195C13.2014 77.7473 13.6293 78.1753 14.1572 78.1753H83.9411C84.4689 78.1753 84.8969 77.7473 84.8969 77.2195C84.8969 76.6916 84.4689 76.2637 83.9411 76.2637H14.1572Z" fill="#E6E6E6"/>
<path d="M14.1578 82C13.6299 81.9989 13.2011 82.4259 13.2 82.9538C13.1988 83.4816 13.6259 83.9105 14.1537 83.9116H58.2718C58.7997 83.9116 59.2276 83.4837 59.2276 82.9558C59.2276 82.4279 58.7997 82 58.2718 82H14.1578Z" fill="#E6E6E6"/>
<path d="M98.0943 91.3759H0V68.8008H98.0943V91.3759ZM1.61251 89.7634H96.4818V70.4133H1.61251V89.7634Z" fill="#E5E5E5"/>
<path d="M98.9002 22.5751H0.805908V0H98.9002V22.5751Z" fill="white"/>
<path d="M14.9628 7.46289C14.435 7.46386 14.0078 7.89255 14.0088 8.42042C14.0098 8.94693 14.4363 9.37351 14.9628 9.37447H84.7467C85.2746 9.37351 85.7017 8.94481 85.7008 8.41694C85.6998 7.89043 85.2732 7.46385 84.7467 7.46289H14.9628Z" fill="#6C63FF"/>
<path d="M14.9638 13.1992C14.4359 13.1981 14.0071 13.6251 14.006 14.153C14.0049 14.6809 14.4319 15.1097 14.9598 15.1108H59.0778C59.6057 15.1118 60.0344 14.6846 60.0354 14.1568C60.0363 13.6289 59.6092 13.2002 59.0813 13.1992C59.0802 13.1992 59.079 13.1992 59.0778 13.1992L14.9638 13.1992Z" fill="#6C63FF"/>
<path d="M98.9002 22.5751H0.805908V0H98.9002V22.5751ZM2.41842 20.9626H97.2877V1.61251H2.41842V20.9626Z" fill="#E5E5E5"/>
<path d="M130.161 98.5736C132.971 98.5736 135.25 96.2954 135.25 93.485C135.25 90.6747 132.971 88.3965 130.161 88.3965C127.351 88.3965 125.073 90.6747 125.073 93.485C125.073 96.2954 127.351 98.5736 130.161 98.5736Z" fill="#6C63FF"/>
<path d="M129.656 95.4248C129.542 95.425 129.43 95.388 129.339 95.3193L129.333 95.315L128.137 94.4002C127.904 94.2216 127.86 93.888 128.039 93.6551C128.217 93.4222 128.551 93.3781 128.784 93.5567L129.558 94.1507L131.389 91.7627C131.567 91.5299 131.901 91.4858 132.134 91.6644L132.122 91.6802L132.134 91.6645C132.367 91.8432 132.411 92.1765 132.232 92.4094L130.079 95.2169C129.978 95.348 129.822 95.4247 129.657 95.4242L129.656 95.4248Z" fill="white"/>
</svg>
