<svg width="117" height="70" viewBox="0 0 117 70" fill="none" xmlns="http://www.w3.org/2000/svg">
<path d="M1.4259 42.9998C1.4259 42.9998 16.6614 24.7085 30.3375 21.9998C40.7367 19.9402 46.7748 27.0923 57.2552 25.4998C73.4833 23.034 76.5919 5.4208 92.6469 1.99988C101.597 0.0929484 115.577 1.99983 115.577 1.99983" stroke="#4592FC" stroke-width="2" stroke-linecap="round"/>
<path d="M30.836 21.8475C17.1599 24.5562 1.92438 42.8475 1.92438 42.8475V70H116.075V1.84749C116.075 1.84749 102.095 -0.0593953 93.1454 1.84754C77.0903 5.26846 73.9818 22.8817 57.7536 25.3475C47.2732 26.9399 41.2351 19.7878 30.836 21.8475Z" fill="url(#paint0_linear_807_2331)"/>
<path d="M30.836 21.8475C17.1599 24.5562 1.92438 42.8475 1.92438 42.8475V70H116.075V1.84749C116.075 1.84749 102.095 -0.0593953 93.1454 1.84754C77.0903 5.26846 73.9818 22.8817 57.7536 25.3475C47.2732 26.9399 41.2351 19.7878 30.836 21.8475Z" fill="url(#paint1_linear_807_2331)"/>
<defs>
<linearGradient id="paint0_linear_807_2331" x1="47.2857" y1="-1.5" x2="61.3242" y2="59.9814" gradientUnits="userSpaceOnUse">
<stop stop-color="#4592FC"/>
<stop offset="1" stop-color="white" stop-opacity="0"/>
</linearGradient>
<linearGradient id="paint1_linear_807_2331" x1="37.3161" y1="-19" x2="61.871" y2="43.449" gradientUnits="userSpaceOnUse">
<stop stop-color="#4592FC"/>
<stop offset="1" stop-color="white" stop-opacity="0"/>
</linearGradient>
</defs>
</svg>
